<?xml version="1.0" encoding="UTF-8"?>
<svg id="Calque_2" data-name="Calque 2" xmlns="http://www.w3.org/2000/svg" viewBox="0 0 825 833.2">
  <defs>
    <style>
      .cls-1 {
        fill: #ffbfb1;
        stroke: #fff;
        stroke-linecap: round;
        stroke-linejoin: round;
        stroke-width: .5px;
      }
    </style>
  </defs>
  <g id="Calque_1-2" data-name="Calque 1">
    <g id="features">
      <path id="FRHDF" class="cls-1" d="M578.65,110.55v3.6l.4,1,.6.8.8,1.7.2,1v1.5l-.7,1.2-.9,1.7-.4,1.1-.5,3.3.2.7,1,.9.4,1.1v1.3l-.3.9-.6.7-2.2,2-.9,1.1-.6.5-.6.3-.6.5-.7.9-.8,1.5-.7.7-.7.3h-1.3c0-.1-.6,0-.6,0l-.6.4-.5.7.2.7.5,1.4.2,1.3.3.6.3.7.2.9-.2.8-.3.9v.7l.3.9v1l-.2.6-1.2,1-.4.9v.8l.4.8,1.2,1.9.3,1.1-1.2.3-.6.4-.3.6-.3.7.9.5.5,1.3v2.4l-.3.7-.3.8-.3.5-.6.2-.6-.2-1.1-.8h-.5c0-.1-.7,0-.7,0l-.7.5h-.6c0,.1-.6,0-.6,0l-1.8-1.2-.6-.3-.8-.2h-1.5l-.8.5-.4.5v1.8l-.2.4-.4.2-3.9.5-5.2,1.5-2.2,1.2-1.1.9v.7l.8,1.4.2.7v.7l.3,4.1v.6l.3.6.2.4h.6c0,.1.5.1.5.1l.5.3.4.4.3.6.5.5,1.1.6.2.4v.5l-.2.8-.5.7-.6.4-.7.2h-.7c0,.1-2.6-.4-2.6-.4h-.7c0,.1-.8.5-.8.5l-.4.3-.2.4v.6l-.2.6v.6l.4,1.3v.7l-.2.8-.5,1-.6.8-.4.4-.9.6-.2.6v1.2l.2.4.5.4h.6c0,.1,2,0,2,0h1.2c0,.1.5.4.5.4l.4.5v.9l-.3.6-.5.5-.6.4-1.1,1.1-.7,1.3-1.1.7-.7.7-.3.7-.2.9-.5.8-3.9,3.8-.5.8-.7,1.2-.9,2-1.7.3h-.9c0-.1-1-.5-1-.5l-2.2-1.7-.6-.9v-.7l-.2-1.1-.2-1.5-.3-.5-.4-.4h-.5c0,.1-1,.7-1,.7l-.7-.2-8.9-8-.5-.6-.2-.8v-.4l.2-.6.2-.6.2-.9v-.9l-1-2.2-.6-.8-.5-.6-3.8-1.2-1.4,1-.7.3h-1c0-.1-.8,0-.8,0l-.9.4-1,.9h-.5l-.9-.7-.6-.3-1,.4-4.8.9-3.4-1h-.6c0-.1-.6,0-.6,0l-.7.6-.3.5-.4.4-.4.2h-.7l-.6-.3-.3-.2-.6-.6-.5-.2-1.3.5h-.7c0,.1-.7-.5-.7-.5l-1.1-1.2-1.5-.3-2.7,1.2-1.3-1.1-.6-.8-.2-.5-.4-.4-.5-.3-1,.5h-.6l-10.8-6-1-.4-1.1.4-2.1,1.3h-.9c0,.1-.9,0-.9,0l-3.9-1.8-1.5-.3h-1l-1.6-.8-.8-.6-.4-.6-.5-.4h-.6c0-.1-.9.2-.9.2l-.7.5-2.7,2-.9.4-1.2.3h-2.9c0,.1-2.2.7-2.2.7l-1.1-.5-1.8-.3-2.9-.9h-1.9c0-.1-.7-.2-.7-.2l-.7-.2-.8-.6-.4-.7-.2-1-.2-.7-.9-.9-.3-1.2v-.6c-.1,0-.1-.2-.1-.2l.8-1.3.7-.4h.6c0-.1.6.2.6.2l.5.6.8,1v.2c.1,0,.3.1.3.1l.4.2h.5c0-.1.3-.3.3-.3h.1c0-.1.1-.2.1-.2l-.4-1.6-1.7-4.1-1.8-6.8-.2-2.7v-1.2l.2-1.2.6-1.4.5-1.3.2-.4v-.2c.1,0,.3-.1.3-.1h.4c0-.1.5-.6.5-.6l.4-1.1v-.9c.1,0-.4-.9-.4-.9h-.6c0-.1-.6,0-.6,0l-.6.3h-.4c0,.1-.3.1-.3.1l-.5-.6-.2-1.1-.2-3.2-.3-1.2-.3-1-.2-2.9v-1.8l-.2-.7-.4-.5v-.5c-.1,0,.3-.6.3-.6l1.2-.7.7-.6.7-1.1.3-.9-.3-.8h-1.2c0,.1-.7.4-.7.4l-.6.2h-.6c0-.1-.1-.9-.1-.9l.4-1.2,2.1-3.4.6-.7,1.1-.6.5-.7v-1c-.1,0-.3-.7-.3-.7l-.5-1.4-1.3-2.1-.6-1.4-.9-3.8-.9-1.3-10.2-10.8-8.9-6.3,1.1-.9,3.3-4.1.7-.6.6-.8,1.3-5.1,2.2-2.9,2.1-.3,6.1,3h.6l.5-.5v-.7h-1c0-.1-.4-.5-.4-.5l-.3-.8h1.3v-.7h-1.2l-1.3-.4-.9-.8-.4-1.1-.6-1.2-2.7-1.3-.6-.8v-3.1c.1,0,.6-3.8.6-3.8l1.3-2.6,1.4.3,1,.2v-.6l-3.4-2.7v-.7l1.1-3.2v-4.6c.1,0,.4-4,.4-4l1.9-1.4-1.7-2.6-.3-1.4-.3-4.6-.6-4.1v-2c-.1,0,.2-1.8.2-1.8l1.3-3.8.8-1.5.3-1.8-.4-2.3-1-3.6v-1.4c-.1,0-.2-.5-.2-.5l1.5-1.2.6-.2h1.3l1.1-.6,1.1-1,1.8-2.5,1.9-1.8,11.8-5.2,1.1.2,2.2-1.2,5.5-.8,4.4-.5,10.6-3.5.7-.4h.5l3.7.4,5-1.3,2.5-1.2,1-.6h0l.9,2.2.6,4.3.7,1.9,2.2,2.5.9,1.5.2,1.9-.3.6-1.4,1.5-.4.8,1.2,4.4v.6l-.5,1.1v.4l.1.4.7.3.3.4.6,1.2.3.6.4.2.9.2h.6l1.1-.2h.6l.8.5.3.6.2.6.4.8,2.3,2.2.4.6.8,2,.3.6,1.2,1,4.9,2.2.3.2,1,.2.8-.6,1.9-3.3,1.1-1.2,1.4-.9,3.2-1,5-1.6,1.6.5,1,1,1,1.9.9,1.5.8,1.9.5.6h.8l.9.4.5.9.7,2.3-.9,1.6.5,2.8,1.6,5.5v3.1l.4,1.1,1,1.3.8.6,2.7,1.4,1.1.3h1.5l2.7-1.1.9-.7.6-.6.6-.4h.9l.9.2.4.5v.8l-.7,1.1.8.5h4l1.4.4,1.3.6,1.2,1.2,1,1.9.6,3.7v4.5l.5,4,2.2,2,.2-.6h.5l.2-.3.2-.8,1.2-1.9.5-.6.8-.3,2.7-.2,2.6.3,1.2.6,1.1.8,1.1.5h1.4l3.9-1.7h1.4l1.2.5,2,2.3,1.3.7,1.3,1.2,1.7,3.6,1.1.6.5-.5v-1.3l.8-.3.6.2.8.5.8.7.4.6-.2,1-.6.7-1.5,1.2-.6.9-.3.8-.3,1.8-1.2,3.8-.2,1.8.9.4,1.2-.5h.7c0-.1.6.2.6.2l1.1,4.1.3.9.5.8v.6l-1.5.8-1.5,1-1.1,1.1-.5.5-.3.7-.2,1.2h.3c0,.1.3,1.6.3,1.6v1.4l-.4-.1,3.5,1.9.8.3.9-.2h.1Z"/>
      <path id="FRGES" class="cls-1" d="M759.75,341.95l.2-1,.3-.8v-2.2l-.5-.8-.5-.8-3.4-3.8-.8-.4h-.6c0-.1-.6-.1-.6-.1h-.6l-.5-.3-.4-.6v-1.2l.2-.4,1.1-1.5.3-.6.3-.6v-.7l.3-.6v-1.2l-.2-2.1-.3-1.2-.7-.8-1-1-8.7-5.1-.4-.6-.4-.5v-1.5l-1.7-.2-.4-.3-4.6-3.5-1.3-1.3-.8-.5-1.9-.7-.7-.6-.6-.6-1.2-1.7-1.2-1.3-.8-.5h-.6c0-.1-.5.3-.5.3l-.3.5-.6,1.1-.4.6-.5.5-.7.4-.8.2h-.9c0,.1-1.2.1-1.2.1l-.8-.2-.4-.2-5.4-3.5-2.4-1-3.2.3-1.1.4-.7.6-.6.4-.9.3h-1.5l-1-.5-.9-.7-1.1-.3-.6-.4-.2-.5v-1.8l-.4-.7-.6-.7-1.2-.9-3-.6h-1c0,.1-.7.4-.7.4l-.5.4-.6.8-1.2,1.7-.5.5-1.5,1-.7.8-.5.4-.7.3-.3-.4v-.5l.1-1.2v-1.1l-.4-.4h-.4l-.4.3-.3.4-1.1,2.2-.2.4-.7.6-1.2.4.4,1.3v.4l-.4.5-.5.2-.7.2-.7.3-.5.7-1.2,2.1-.8.7-6.5,4.7-.7,1.1-.3.8.6,1.5v1.1l-.3,1.7-.2,1.1v1.7l.2.9-.2,1.1-.5.7-.6.4-6,2.1h-.6c0,.1-.7.1-.7.1l-.6-.3-3.4-2h-1.1l-1,.4-1.4.3h-.7l-.7.3-.5.5-.4.7-2,4.6-.2.7-.4.3-.4.3h-.5c0-.1-.3-.8-.3-.8l-.4-.4h-.5c0-.1-.5.2-.5.2l-1.8,1.4h-.6c0,.1-.5-.1-.5-.1l-.4-.9-.2-1.3-.2-.4-.3-.3-.7-.3-1.6-.9-1.1-1-.6-.7-.2-.6v-.6l-.2-.5-.5-.4h-.7c0,.1-.4.5-.4.5l-.4.5-.2.5-.4.5-.4.4-.6.2h-.6c0,.1-.6,0-.6,0l-.6-.3-1.2-.8-.7-.6-.6-.9-1-1.7-.6-.8h-.7c0-.1-.4.2-.4.2l-.7,1-.3.2-.5.2h-.6c0-.1-.6-.6-.6-.6l-.5-1.2-.2-.8-.4-2.7v-.5h0c0-.1-.5-.8-.5-.8l-.6-.7-.3-.7v-.8l.5-.4.6-.2h1.2c0-.1.6-.2.6-.2l.5-.4.2-.5v-.6l-.2-.6-1.2-2.6-1.3-2.3-3.2-4.1h-.7c0-.1-.3.2-.3.2l-.5.9-.4.3h-.5l-.4-.4-.4-.8v-.7l.3-.6.6-1.1.2-.4v-.4l-.3-.4-.5-.5-2.2-.8-.7-.4-.2-.7.6-1-.2-.6-.7-.5-3.8-.8-2-1.5-1.8,1-.7.2h-1l-2-.6h-.8l-.9.4-1.2,1.2-.3.8v1.4l-.3.4-.7.4-13.4,1.8-2.3,2h-.7l-.6-.3-.7-.7-1.1-1.4-.9-1.7-.4-.4-.3.2v2.7l-.5.2-.5-.2-.6-.6-.6-.5h-.8c0-.1-.6.3-.6.3l-.4.4-.3.6-.3.4-.6.2h-.6c0,.1-1.3,0-1.3,0l-1.2-.4h-.6c0-.1-.5.1-.5.1l-.8.9-.5.3h-.6c0,.1-.5-.1-.5-.1l-1-.5h-.4c0-.1-.4-.2-.4-.2l-2.4.3-1.7-.2-.5-.3-.5-.5-.3-.8v-3.1l-.3-.4h-.7c0-.1-1.2.3-1.2.3h-.6l-1.2-.7-.5-.3v-.7l.3-.3,1-.2.4-.3v-.5l-.3-.6-4.4-7.7-1-1.4-.9-.8-.3-.7-.2-.7-.2-.7-.5-.6-.9-.4h-.6c0,.1-.3.6-.3.6v.5l-.4.4-1.1.3h-.8c0-.1-1.1-.8-1.1-.8l-1.9-1.7-2.2-1.1v-.6l.3-.6,1.1-1,.4-.6v-1.1l-.3-1.4v-1.8l-.5-.9-.8-1.2-4-5.4-.8-.8-1-.9-2-1.1h-1c0-.1-1.1.2-1.1.2l-.4-.3-.2-1v-.8l-.3-1.2-1.1-.9-.2-.9.2-1.1.3-1.1v-.8l-.7-1.4v-.6l.4-.6,1.3-1.1.2-.5v-.3l-.7-1.1-.3-.6v-.5l.4-.2,1-.3h.7l.8-.3.6-.6.5-1.1.4-1.7,1.1-1.7,2.7-2.4-1.3-1.8-.5-.8-.4-.2h-.4l-1.1.4h-.6c0,.1-.5-.3-.5-.3l-.2-.7v-1.1l.4-2.2v-1l-.4-1.5v-.6l-.3-.6-.3-.5-.5-.4-.5-.4-.3-.7-.2-.3h0c0-.1-.3-.1-.3-.1h-.7c0,.1-.4,0-.4,0h0c0-.1-.2-.3-.2-.3v-.6l.2-1,.5-.7.8-.7.4-.5v-.5l-.9-.7-.3-.5.2-.4.7-.2h2.1l.6-.2.4-.5.3-.6v-2l1-2,.7-1.2.5-.8,3.9-3.8.5-.8.2-.9.3-.7.7-.7,1.1-.7.7-1.3,1.1-1.1.6-.4.5-.5.3-.6v-.9l-.4-.5-.5-.3h-.6c0-.1-.6-.1-.6-.1l-2,.2h-.6c0-.1-.5-.5-.5-.5v-.4l-.2-.3v-.9l.2-.6.9-.6.4-.4.6-.8.5-1,.2-.8v-.7l-.3-1.3v-1.8l.3-.4.4-.3.8-.4h.7c0-.1,2.6.4,2.6.4h.7c0-.1.7-.3.7-.3l.6-.4.5-.7.3-.8v-.5l-.3-.4-1.1-.6-.5-.5-.3-.6-.4-.4-.5-.3h-1.1c0-.1-.2-.5-.2-.5l-.2-.6v-.6l-.3-4.1v-.7l-.3-.7-.7-1.4v-.7l1-.9,2.2-1.2,5.2-1.5,3.9-.5.4-.2.2-.4v-1.8l.4-.5.8-.5h1.5l.8.2.6.3,1.8,1.2h.6c0,.1.6,0,.6,0l.7-.5.7-.2h.5c0,.1,1.1.9,1.1.9l.6.2.6-.2.3-.5.3-.8.2-.7v-2.4l-.4-1.3-.9-.5.3-.7.3-.6.6-.4,1.2-.3-.3-1.1-1.2-1.9-.3-.8v-.8l.3-.9,1.2-1,.3-.6v-1l-.4-.9v-.7l.3-.9.2-.8-.2-.9-.3-.7-.3-.6-.2-1.3-.5-1.4-.2-.7.5-.7.6-.4.6-.2h1.3c0,.1.7-.2.7-.2l.7-.7.8-1.5.7-.9.6-.5.6-.3.6-.5.9-1.1,2.2-2,.6-.7.3-.9v-1.3l-.4-1.1-1-.9-.2-.7.5-3.3.4-1.1.9-1.7.6-1.2v-1.5l-.2-1-.8-1.7-.6-.8-.4-1v-3.6l3.7-.5,9.3,2.5.5.2,1.8-.4,8.6-4.3,2.6-.4.7-.4.5-1.1.5-1.5.5-3.1v-.7l-.3-.5-.2-.5.2-1,.3-.7,6.6-6.7,1.7-.8.3,1.4.7.3,1.9-.4.6.8v1.7l-.4,1.9-.2,1.7-.6-.7h-.4c0,.1-1.2,2.7-1.2,2.7v2.7l-2.4,5.9-.2,1.6.8,1.3,2.9,1.2,1,1.8v1.2l-.1.9-.3.8-.3,1.1-.2.5-.6.7v1l.6,1.1.2.5v3.6l.5.7,1.7.3,1.3-.3,2.7-.9h1.2v-.1l1.1.7,2.3,2.2,1.3.7,2.2.7.7.7,2.7,3.8.9.9,1.1.9,1.4.4,2.8-.8h1.4l1.3,1.2,1.1,1.5.5,1.4-.3.4-.5.3-.2,1.4.2.8.3.4,1,.2h.4c0-.1.4-.6.4-.6l.2-.5.2-.3h.4c0,.1.7.5.7.5l1.9.7.5.4.7.6,3,5.5.2.8v1l-.2.9v.9l.3.8,1.4.4,1.6-1,1.5-1.2,1.2-.5,1.9.9h.6c0,.1.9,0,.9,0l.2-.4v-.7l.9-1,1.5-.8,1.4.4,1.3.6,1.4.3.7-.4.8-1,.7-.4h.7c0,.1,1.3.9,1.3.9l.7.2,2,2.6,1.1,1,1.5.8,4,.9,1.1,1.2.9,2.7,1-.4,5.3-.3.9-.3h0c0-.1.5-.9.5-.9l.7-.3h0v-1.1l.3-.6.5-.2,1.7-.2-.4-.8,1.5-.2,2.1-.2,1.7.2,1.7.6h0c0,.1,3,2.3,3,2.3l1.6.9,1.3.2h1.1c0-.1.2-.2.2-.2l.3-.2.7-.5.5-.2h.7c0,.1,5.7,3,5.7,3l1.1,1,.3.8.2.8v.5h0l.4.7,3,3.2.2.5-.2.8h-1.1c0,.1-.4.9-.4.9l.4,1.1,1.1,1.3,4.1,4v.4l-.1.9v.4l.4.3.9.3.3.3.5,1.7.2.4v1l.3.3h.3l.8-.6h.3l.4,1.5-.4,1.2v1.2l.7,1.3.7.3h2.7l2.5.9h.7c0-.1,1.1-1.6,1.1-1.6l-.2-1.5-.5-1.6.4-1.3h.6c0-.1,2.6.5,2.6.5l1.8-.2h.7c0,.1,3.8,2.3,3.8,2.3h1.4v3.4l.6,2.6,1.4,1.1,1.9-1.2v-.5l-.1-.5v-.5l.5-.6h.4l2.3,1.8,1,.5,1,.3h5.3c0,.1,1.7.8,1.7.8h.3c0,.1.4-.3.4-.3l.7-1.3.4-.5.5-.2h1.3c0-.1.4-.4.4-.4l.4-.5.4-1.4.3-.4,1-.6h.3c0-.1,1.2-.4,1.2-.4h1.2c0,.1.2,1.1.2,1.1l2.7.2,1.1.4.4,1.4-.4.3-.2.2v.3l.8.9,1.4,2.3.8,1,1.3.9,2.8.5,1.3.7.5.5.6,1.3.6.5h.6c0,.1.2.1.2.1h.8c0-.1.7-.5.7-.5h.8c0-.1.6,0,.6,0l1.4.5h.6c0,.1.7,0,.7,0l1.5-.8.6-.2,5.2,1.5,3.5-.4h1.1c0,.1,9.8,5.4,9.8,5.4l6.1,1.2.7.7h0c0,.1-1.3,1.5-1.3,1.5l-1.9,3.7-2.8,7.7-.8,1.3-.3.4-2.3,1.2h-.6v.2l-.4.3-.3.5v.9l-.2.5-.4.3-.5.2h-1.7l-.7.3-.3.8v1.8l-.4.7-.6.9-.9.8-.7.5-1.7,2-.9.8-1.1.4-.7.5-2.6,4.1-.5,3v3.3l.7,2v.6l-1.5,1.2-.8.8-.3.9v1.7l-.4.9-.4.6-.5.9-.3,1.1-.4,2.5v1.2l.1,1.1.4,1.2.3,1.2v1.3l-.9,1.4-1.2.6-1,.8-.4,2v1.9l-.5,1.6-.7,1.3-3.9,5.5-.4,1.1v1.4l-.4.7-.4.6-.5.8-.2.8-.2.6-.4,1.8.2,3.8,2.7,4.8v2.8l-.5,1.2-1.6,1.7-.4,1.2v2l-.4.9-.2.4-.5.4v.4l-.2.4v.9l.3,1.7-.2,1-.8.5-.3.4-.9,3-.2,1.3.8,3.2v1.5l-.4.6-1,1.1-.3.6.2,2,.2,1,.3.4.9.5.8,1.1,1.4,2.8.4.5.4.3.3.5v1.2l-.3,1-2.2.8-1.5.8-.3.3-2.4,1.9h.2c0,.1,1,.9,1,.9h.2v.9l-.2.5-.5.2h-.7c0-.1-.3,0-.3,0v.7l.5.6v.2h0v.6l-.2.1-.9.9h-.8c0-.1-.5-.5-.5-.5l-.3-.2-1-.3-.7.2v.6l.3.5.2.3.3.4v.5l-.1.9-.3.4-.9,1.2-1.1.4-.6.3-2.6-.2h-1.7l-1.6.3-2.4,1h-.4c0,.1-.5-.1-.5-.1l-.2-.3-.2-.3-.3-.2-1.8-.6-1.3-.8-.4-1.5,1.2-2.6-1.7.2-.7-.2h0l.5-.1Z"/>
      <path id="FRPAC" class="cls-1" d="M578.05,697.65l1.6-1,.6-1.3.2-.8v-.3h.2l.3-.3h.6l.5-.3.4-.5.5-.4,1.4-.2.7-.4,1-.6,2.5-2.2h.3l1.1-.4h.3l.2-.4v-.9l.3-.3.5-.3h.3l1.1-.2h.3l.3-.3.3-.5.3-1.1v-.5l-.2-.2h-1.3l-.2-.2-.2-.2-.2-.2v-.3l.2-.3.5-1.1.2-.5.2-.8.3-.6,1.6-2.3,1.4-1.1,1.6-.5h.9l2,.7.5.3.5.3h.2l.3.2h.5l.2-.2.3-.5.2-1v-1.2l-.2-.3v-.7l1.2-2.3.7-2.3.2-.9v-1.2l-.3-1.8v-.3l-.2-.6v-1.7l.4-.4.7-.6,1.9-1.1,2.3-1.9.8-.4,2.1-.9.4-.4v-.2l.5-.3.8-.5.3-.3.4-.5.4-.5v-.3l.2-.4v-2.3h0l.3-.2h1.2v-1.5l-.3-.4-1.2-1.3-2.9-4-.3-.3-.4-.2h-1.6l-.5.4h-.2l-.2-.2-.2-.5-.3-2.6v-1l.2-.3v-1.8l-.2-2.6-.2-.3-.2-.5-.6-.5-.7-.5-.3-.3v-2.2l-.6-.6-.7-.9-.5-2.1v-3.9l1.7-.2h1.9l1.7.3.4.2.5.3.9.8.5.7.3.6,1.4,4,.3.6.5.4h.6l.8-.1.6-.3,1.2-.9.5-.3.6-.2,1.7-.2h.5l1.2-.6,1.2-.7,1.2-.5,4.2-1.2h.8l2.8.7h1l.7-.4.9-.9.4-.4h.5l.3.2v.7l-.1.6-.5,1.2v2.5l.3.6.6.6.9.4,1.9.4h1.1l.9-.3h.9l4.3,1.6h1.4l.6.2.5.3.4.8.2.7v.7l.3.6.3.6.6.5,1.1.5,2.2,2,.6.3,2.1.2,1.9-1.2,1.8-1.8.8-1.1.8-.7.8-.3,1.4.3.7.5.3.5v.6l.4.5.4.3h.5l.4-.1.3-.5-.3-2.1.5-.8.2-.3.2-3.4v-2.2l-.4-.7-.5-.4-1-.4-.4-.4-.8-1-.4-.5-.3-.4v-.6l.3-.7.2-.6-.3-.4-.5-.2h-.5l-2.9.2-.5-.2-1.1-.7-.6-.2-1.2-.2-.4-.2h-.3l-2.4-2-.2-.5v-.4l-.2-.8v-.5l-.5-.6-.9-1-.2-.5v-.5l.8-.3h.6l1.7.5h1l.3-.4.2-.3v-.6l-.2-.3-.3-.3-.5-.3-.4-.4-.4-.5-.2-.5v-.7l-.2-.6v-.5l.4-.3.8-.2h.6l1.9.3,3.8,1.4h.6l.7-.1,2.7-2,.5-.6v-1l-.4-.6-.4-.5-1.6-1.1-.4-.5-.2-.4-.2-.5v-.9l.4-.6,1.8-2.8.4-1.1.2-.9v-.6l.2-.6.9-.3h1.3l.7.2h1.9l.7-.3,1.1-.5,1.8-.2.5-.3.9-1,.5-.6.3-.6v-1.2l-.7-.5-.3-.8,1.5-2.6.5-.7.8-.3h2.5l1.3-.2,2.4-.8.5-.5.4-.5v-.9l-.2-.6v-.7l.2-.6,1.5-1.2,1-.6.6-.3h1.1l1.1.4h.5l.7-.2,3.2-2.2.6-.2h.6l1.1.4h.6l1.9-.3h2.3l2-.9.6-.2h1.2l2.2.9h1l.3-.4.2-.5v-1.3l.3-2.5-.2-.7-.2-.7-.7-1-.6-.6-.5-.7-.2-.7v-2.7l-.4-.6-.6-.5-.6-.2-2.9.6h-.8l-.6-.2-.6-.3-.2-.9v-1.5l.6-3.1v-1.5l.4-1.2.2-.5,1.5-1.7,1,.9.6.2h2.4l1.6.3.8.5.5.6.3,1.2.2.5.5.5,4,1.5h.7l.6-.4,1-1.1.3-.9.2-.7v-.6l.4-.5.6-.2h2.5l2.3-1.5,1.9-.3-.9.8-.7,1,1.1,1.7,1,.8v1.4l.2.8.7,1.2.7.6,2.1.2,1.7,1.2.4,2.5-.2,4.9,1.1,1.8,2,1.8,4.3,2.5,1.2.3,3-.6h1.1l3.1,1.3,1.1,1.3.3.4v1.4h0l-.3,1.5h0l.7,2,.3,2.1.2.8,1.3,2.3.6,1.2.4,1.2h-1.1l-2.3-.7h-1.1l-1.4.8-1.2,1.4v.8l-.4,1,.7,1.8-.9.7-2.1,3.7-3.1,2.4-.7,1.2.2,2.7,1.4,2.4,1.9,2,1.6,1.3-2.1,1.2-.4.7-.5,2.7-.2.6v.4l.2.8.3.4.2.3,1.1,1.3.5.9.8,1.7.3.7.6.5,1.2.9.5.7.4.9.2.8.3.7.6.7.8.3h.8l.7-.4h.8l.8.2,3.7,2,2.4.9,6.6,4,1.2.5,1.6.3.8.3.4.6.4.8.6.5.5.2h2.5l10.8-3.1h1.8l2.5-1.8,1.9.3-.8,2.9.7,1.6,1.4,1.3.7,1.6.3.5v1.5l-.8.9-.9.7-.7.8-.4,1.1-.5,1.9-.5,1-1.4,1.5-3.2,2.7-1.2,2-2.7,3-1,1.8.3,2.1,1.3,4.2-.9.5h-.8v1.8l-.4.3h-.4l-.5.4-.5.6-.6.5-.7-1-1.1-.7-1.2.5-1,1-.3,1v1l-.9.6-.6.7-.3.8-.5,1h-.7l-1.1-.1-1.3-.5-1.4.2-1,.6-.8.9.2.9-1.1,1.2-.6.4-.5-1.1-1.1-.2-.8.3h-.8l-.5.9-.5.4-.2.6-.4,2.4.3,2.3v.5l.3.9.2.7-.9.6-.7-1.5-.6-.3h-1l-1,.7-.8.9-.8.6-.5.6-.4-1h-3.4l-.9.6-1,1.1-.3,1.3.6.4h0l.3.3v.3l-1.3,1.7-.5.7-.3,2-1.3.9-.3.9h-1.4v-.4l-.2-.3-.2-.3-.3.3v.6l.1,1.1-.8.3-.7-.3h-1l-2.3.6-.6-.8-1-.4-.6.4-1,.9v2.2l-.8,1.3v1.4l-1.5.2h-1.2l-.5,1.3-.3.9-.6.6-1.7,1.6-1.6,1-.4,1.3,1.2.4,3.8-1,1.3.3.3.6-.8,1.5-1,.7-.2,1.6.4.6.5,1-1.2,1-1.3.7-.7.2-1.2.5h-.6l-.3-.5v-.7l-.8.3h-1.1l-1.5.2-.2.8-.6,1-1.3.8-1.7-.4-1.7.3h-1.8l-1.2.5-1.5.9-.8,1.5.3,1.1.3,1.2h-2l-.9-.7-.2-.4-1.2-.4-1.6-.8-1.6-.2-2.1.4-1.6.6-.9.5-1,.9-.6,1.7v2l1.1.5.9-.2-.4.8-1.5.2-3.6.2-.5-.3.9-.5,1-.4.8-.6-.2-1.6-1.2-1.1h-1.1l-2.9.5h-1.1l-.7-1.8-1.5-.2h-2.1l-1.5-1,.2-.5v-.8l.2-.4h-1l-1,.2-1.8.9,1.1.4.9,1.9,1,.5,1.5.6-.7.8h-3.2l-.8.3-1.2,2-2.3-.7-1.8-1.4-.5-.8,1.3-.8.9-.9-.4-.6-.6-.5-1.1-.2-.2-.7-.3-.7h-2.1l-2.8-1.2-.5-1.9-.9-.9h0l-1-.5h-1.3l-.7.7-.7,1.4-1.5-.6h-.9l-.9-1.2-.7-1-.6-1.2-.8-.4-.7.4-.6.2-2.7-.3h-1.3l-1.8-.2h-.9l-1.6.3-1.4-.7.2-1.5.2-.8.4-.9.6-1.4-.8-.9v-.9l-.3-.5-.8-3.1-2.8-1.8-3.4,2.3h-4.7l-2.3.2-3.8-.2-1.9-.6-1.2-1.9-.5-2.1,1.2-2.3,2-1.1h5.5l1.7-.5,1.2-1,1.2-1.6.8-1.9-.2-2-1.8,1.2-1.7.6-1.6-.2-1.4-1.6-.4-1.3v-.7l-.3-.5-1.3-.4h-2l-.2-.3-.9-1.2-.4-.3-.4.6-.4,1.1-.3,1.2v.6l.2,1.7.6.7.7.4.9.7.8,2.2-.7,1.9-1.5,1-1.8.2-.9-.2-3.4-2-1.6.8-.6.5-1.5.3-.6.6-.5,1.1.2.5.7,1.6v1h2.2l-1.5,1.4-1.3.7-.3-1.4-1.1-2-2.6-1.5-2.1-1.9-.9-2.3v-6.4l-.4-1.3-.6-1.5-.9-1.3-1.1-.6v.5l1.9,3,.2.9v6.1l.9,2.8,1.7,1.8,1.9,1.4,1.4,1.6-.2,1.7h-1.8l-7.8-.1-4.5-1-1.6-1v-1.4l1.2-1.4v-1.1l-.4-1.1-1.5-1.1-2.6-1.1-6.4.7-12.6-1h0l.2-.2ZM703.25,737.05l-.8.4-.9.3-.7-.2-1.5-.9v-.4l.5-.3h1.8l.5-.3.2-.2h1.1v-.7l.5-.2.5.7v1.2l-1.3.6h.1ZM620.25,624.05l-.3-.6-.2-.7v-.8l.5-1.3,3.1-5.2.7-.7.9-.4h.9l.8.5,2.5,2.6.4.6.3.7v.9l-.3.5-1,.9-.5.7-.8,1.8-.6.6-.7.3h-5.2l-.5-.4h0Z"/>
      <path id="FRARA" class="cls-1" d="M727.95,553.75l-1.9.3-2.3,1.4h-2.5l-.6.2-.3.5v.6l-.3.7-.3.9-1,1.1-.6.3h-.7l-4-1.4-.5-.5-.2-.5-.3-1.2-.5-.6-.8-.5-1.6-.3h-2.4l-.6-.3-1-.9-1.5,1.7-.2.5-.3,1.2v1.5l-.7,3.1v1.5l.2.9.6.3h.6l.8.2,2.9-.6.6.2.6.5.3.6v2.7l.2.7.5.7.6.6.7,1,.2.7.2.7-.2,2.5v1.3l-.3.5-.3.4h-1l-2.2-.8h-1.2l-.6.2-2,.9h-2.3l-1.9.4h-.6l-1.1-.5h-.6l-.6.2-3.2,2.2-.7.2h-.5l-1.1-.4h-1.1l-.6.3-1,.6-1.5,1.2-.3.6v.7l.4.6v.9l-.5.5-.5.5-2.4.8-1.3.2h-2.5l-.8.3-.5.7-1.5,2.6.3.8.7.5v1.2l-.3.6-.5.6-.9,1-.5.3-1.8.2-1.1.5-.7.3h-1.9l-.7-.2h-1.3l-.9.3-.2.6v.6l-.2.9-.4,1.1-1.8,2.8-.4.6v.9l.1.5.2.4.4.5,1.6,1.1.4.5.3.6v1l-.4.6-2.7,2-.7.2h-.6l-3.8-1.5-1.9-.3h-.6l-.8.2-.3.3v1.8l.3.5.4.5.4.4.5.3.3.3.2.3v.6l-.2.3-.3.3h-1l-1.7-.5h-.6l-.7.3v.5l.1.5.9,1,.4.6v.5l.2.8v.4l.3.5,2.4,1.9h.3l.4.3,1.2.2.6.2,1.1.7.5.2,2.9-.2h.5l.5.2.3.4-.2.6-.4.7v.6l.4.4.4.5.8,1,.4.4,1,.4.5.4.3.7v2.2l-.1,3.4-.2.3-.5.8.3,2.1-.3.5-.4.2h-.5l-.4-.4-.3-.5v-.6l-.4-.5-.7-.5-1.4-.3-.8.3-.8.7-.8,1.1-1.8,1.8-1.9,1.2-2.1-.2-.6-.3-2.2-2-1.1-.5-.6-.5-.3-.6-.2-.6v-.7l-.3-.7-.4-.8-.5-.3-.6-.2h-1.4l-4.3-1.7h-.9l-.9.2h-1.1l-1.9-.3-.9-.4-.6-.6-.3-.6v-2.5l.5-1.2.2-.6v-.7l-.4-.3h-.5l-.4.5-.9.9-.7.3h-1l-2.8-.6h-.8l-4.2,1.2-1.2.5-1.2.7-1.2.5h-.5l-1.7.3-.6.2-.5.3-1.2.9-.6.3-.8.2h-.6l-.5-.5-.3-.6-1.4-4-.3-.6-.5-.7-.9-.8-.5-.3-.4-.2-1.7-.3h-1.9l-1.8.2v3.9l-2.8-.7-1.6-.9-.4-.3-.2-.2-.3-.4-.2-.2-.5-.4-.2-.2v-.2l-.4-.4-1.8-.8-1.6-.2-1.8.2-.7.4-.3.5v1.6l-.3.5-.4.5-.6.4h-.7l-.6-.1-.8-.8-.2-.6v-.6l.2-.5v-.6l-.1-.5-.4-.4h-.9l-1.9.4-.5.3-1.4,1.3-1.6,1-.4.4-.7,1-.5.4h-1.2l-.7-.3-4.2-2.5-.7-.2-.5-.4-.4-.6-.3-.3h-.6l-1.1.4h-1.7l-1.1.4h-.5l-.3-.6-.2-2.8-.3-1.1.2-.8.4-.4.3-.5v-.7l-.9-1.2-.9-1.9-1.7-1.6-1.8-6.8-.5-1.3-.9-1.6-1.3-.9-.6-1.3-.7-2.4-.5-3.6-.8-2.5v-.2l-.3-.4-.2-.9-.2-1.1.2-2.5-1.5-.4h-.3l-.4-.4-.4-.4-.4-.2-.9-.3-.8-.5-1.9-1.6-1.7-1.9-.5-.4-.8-.3-3.4-.6-.4-.2v-.4l.1-.5.2-.5.2-.6v-.5l-.6-.6-.6-.5-1.1-.2h-.8l-.7.2-.4.3-.3.5v.6l-.2,1.2-.2.6-.3.5-.6.3h-.6l-2.1.2-.6.2-.6.2-.8.5-.9-.5-1.2-1.3-3.5-6.8-.5-1.8-.3-1.1-.2-.5-.5-.3-.6.3h-.7l-.8.1-.4.2-2.6,1.8-.7.3-.6.2h-.6l-.5-.2-.8.4-3.5,3.6-1.2.8h-.9l-.4-.3-1-1.6-.4-.2h-.6l-.5.6-.4.6-.2,2-.5,1.9-.6.6-1.1.6-.5,1.1-.6,1.6-.8,3.7-.4,3-.2.7-1.1,1.5-.6,1.2-.9,2.8-2-1.8-.5-.6-.3-.5-.5-1.2-.3-1.1v-.6l-.2-1.8v-.5l-.2-.6-.3-.6-.2-.5.2-.4.4-.3.6-.3.2-.4-.2-.5-.3-.3h-.3l-1.4-.6-.5-.3-.4-.4-.3-.6-.5-1.7-.3-.6-1.3-1.6-.6-1.4h-.3l-.3-.2h-.6l-1.8.4h-.4l-.2-.5v-2.2l-.3-.6-.3-.6-.9-1-.3-.5-.3-.6-.4-.3h-.4l-8.2,8.7-.3.6v.5l-.3,1.2v.5l-.5.7-1.4,2-.7,1.5v.5l-.4,1.7-.2.5-.2.5-.4.5-1.9,2.1-.7,1.1-.6.6-1.1.6-2,.2h-3.7l-.6.5-.4.2h-.4l-.5-.4-.2-.4-.4-.5-.6-.2h-.7l-3.8,1.4h-.6l-.9.5-.6,2.2h-.7l-.8-.8-.3-.7-.3-.9-.4-2.5-.2-.5-.5-.5-1-.5-.3-.2v-.7c.1,0,.6-1.2.6-1.2l1-4.7v-.9c-.1,0-.4-1-.4-1l-1-1.9-2.6-4.2-.5-1.2-.4-1.5-.5-5.2-.8-1.7,1.4-.6,2.2-.3.5-.2.4-.4.2-.4v-.7c-.1,0-.3-.5-.3-.5l-1.2-2.3-.2-.5v-.7l.4-.7,2.4-1.8.5-.6.5-.7.4-1.2.3-.8.3-.9,1.4-2.8.2-1-.2-.8-.4-.6-.3-.6-.2-.7v-.7c-.1,0,0-.6,0-.6v-.6c.1,0,2.5-1.9,2.5-1.9l.3-.5.4-1.8v-.3c.1,0,.4-.3.4-.3l1.2-.2,1.2-.8.5-.4,2-3.3.5-.2.3-.2.3-.4.4-1.1.8-1.4v-.3c.1,0,.1-.4.1-.4v-1c-.1,0-.2-.3-.2-.3l-.2-.2-.2-.2-.2-.2-.2-.2v-.2c-.1,0,0-.3,0-.3l.3-.4,1.1-.3h1l.3.2.5.3.8.8,1.5.6,1.8.3h.4l.3-.2.4-.5.7-1.8,1.2-5.4-1-.7-.2-.4-.2-.9v-3.9l-.5-.9-1-1.1-.3-.7v-.8l.5-2.9.4-.5.4-.3,1.3-.5.3-.4.3-.3v-.3l.2-.5v-.9l.2-1.5v-1.9l-.6-1.4-1.6-2-.3-.4-.5-.4-.4-.5h0l-.6-.3h-.4l-.5-.2-.4-.4-.2-.6-.2-1.1-.2-.6-.4-.6-1.3-1.8-.2-.7.2-.6.7-.8,1.2-.8.7-.5.7-1,.6-.4.6-.2,1.2.2h.5l.3-.3.9-1.3.3-.4.5-.4.5-.6.4-.8.5-1.4.4-.9.3-.7.5-.6.9-1,.3-.7v-2.5l.2-.9v-.7l-.2-.8-.6-1.2-1-2-.3-.7-.2-1v-.8l.4-4-.6-1.5-1.2-2.1-.4-.9-.3-.8-.4-1.9-.4-.9-2.5-4.1-.6-.7-.9-.3-.5.2-.6.6h-.4c0-.1-.4-.7-.4-.7l-.2-.6-.3-1-.3-.5-.5-.4-1.8-.4-1.2-.4-.6-.3-.5-.6-.5-1.6v-.9c-.1,0-.5-.9-.5-.9l-1.7-1.7-2.1-3.1,1.6-2.8.5-1.1.2-.4.5-.3h.5c0-.1.5-.5.5-.5l.6-.6.9-1.5,3.7-1.9,1.3-.3h.9c0-.1.6,0,.6,0h.6l1.8-.5,2.9-.2,5.2-1.5.2-.2v-1.3l-.2-.3-.2-.5-.4-.6-.9-1.2-.4-.6v-1.2l.4-.9v-.8l-.7-1-.3-.5v-.5l.3-.3.4-.2h1.4c0,.1.6,0,.6,0l.4-.5-.3-1.2v-.5l.5-.3h1.5c0-.1,1.1-.9,1.1-.9l1.8-1.6,1-1.3.4-.3.5.2.2.4.3.5,2.1.8h.5c0-.1.9-1.2.9-1.2l.6-.3h.8c0,.1.7.3.7.3h.6c0,.1.6-.6.6-.6l.4-.6.4-.9.4-.4,3.9-2.6,2.8-.9,1.6.3h1.7c0-.1,0,.8,0,.8v.8l.2.3.3.6.9,1.1,1.2,1,1.2.6.4.4h.3c0,.1.3.1.3.1l.6-.2h.8c0,.1,1.1.4,1.1.4l.7.6,1.7,2,.5.5.6.3h.7l2.5-1.3h.8c0-.1,1-.1,1-.1l1.7.3,1,.4,1.3.8h.5c0,.1.7,0,.7,0l.6-.6.7-1.1.5-.4.6-.2,1.6.5.4.5.4,1.2.3.5.3.6v1.7l.2.4h.6c0,.1.8.1.8.1l.7-.3,2.6-1.7.8-.3.6-.5.3-.9v-.7l.2-.6.8-.4.5-.5.3-.8v-1.3l.2-.3,1.7.3,1.6,2.8.2.6v1l.3.4.8.8v.3l.9.9.2.2h.3c0,.1.3.4.3.4l.3.5.3,1,1,1.6.7.4.3.3v.4l.3,1.5v2.7l-.3.7v.6l.6.3,1,.4h0c0,.1.6.6.6.6l.3.2h.6c0,.1.3.3.3.3l.2.2.2.2.2.2h.3c0,.1.9,0,.9,0h.6c0,.1.3.3.3.3l.7.9.9.6h0c0,.1.2.5.2.5l.2.2.3.2,1.8.5,1.8.3.6.2.8.6.8.4h.2v.7l.2.7v1l.3.4v.3l.3.4v.8l-.6,2.5v1.3l.3.2v.3l.2.3v1.7l.2.3v.3l.3.3.2.3h0v1.1l-.8.7-.6.6-5.7,3.2.6,1.2.2.9v.2h0c0,.1-.2,2.3-.2,2.3v1.1l.5.3.5.3,1.5.4.6.4,1.6,1.3.5.4h.7c0,.1,1,.1,1,.1l3.5-1.4h.7c0-.1,1.1.1,1.1.1l2.5.9h1.3c0-.1,1.6-.7,1.6-.7h.7c0-.1,3,.6,3,.6l1.9.8h.5c0,.1.6.1.6.1h.7c0-.1.8-.4.8-.4l1-.5,1.6-1.3,1.8-2.5.3-.7.5-1.9.4-2.2v-.5l.3-.5.4-.3h.5c0-.1,2.3,1,2.3,1l2.4.6h1.2c0-.1.8-.4.8-.4l.4-.5.5-.3h.5l.7.8.4.6.6.6.7.3h.8l.6-.4.2-.5v-.6l.2-.6v-.6l.4-.3.6-.2,1.7.6.5.3v2l.2.5,1.2.7.4.5v2.6l.6,1.3.4,1.3,1.2,1.1,3.6.5-.2-.7v-1.2l.4-.9.9-4.3.2-.6,3.3-7.2.2-.3v-2l.2-.3.6-.8.8-1.8.2-.7.2-.8.4-3.1v-.4l.2-.3.6-1.6v-.4l.5-.9v-.4l.2-.8h0c0-.1.2-.4.2-.4l.3-.2.8-.2h.9c0,.1.9.3.9.3l2.3,1.1,1,.3,1.4-.2,3.8-1.5,1.8-.2.7.2.8.4,1,.9,1.1,1.4,1.7,1,4.4,1.2v3.1l.5,1.1,1.6.5.5.3.6.7.3.7v.9l.4,1.2.5.7.6.5,1.3.4.8.3.8,1.2.5.3,1.3.2.3.4v1.2l-.2.6v1.7l.3.6.5.3,1.7.5h.3c0-.1.2-.3.2-.3l.2-.2.4-.5,1.2-.5.3-.2.3-.2.5-.8.2-.2.2-.2h.3c0-.1.6-.2.6-.2h.3l.3-.2v-.3l.3-.7v-.3l.3-.2.5-.3.2-.2.5-.8.2-.2,1.2-1,.2.3,2.9,2.6.6.9.2.8v.6l.2.8.5.4.5.2,6.8.3,1.3-.2.7-.2.5-.3,2.2-1.9.4-.5.3-.5.4-.5.6-.4.3-.2.2-.3.8-1.5.3-.4,2.1-2.3.4-.8.5-.6,2.5-2.8,3.1,1.8.9,1,.8,1.4v1l-1.1,2.4-.9,2.1-.2.7-.4,2.5v1.8l-.3.6-1.3.4h-.4c0,.1-.3,0-.3,0h-.5v-.2h0c0,.1-.2.1-.2.1l-3.7,1.8-1.5,1-.2,1,.6,1.3,1.1,1.3-.2.8-.4.9-.9,1.9,1.5-.8,2.8-.7h2.9c0-.1,2.1.8,2.1.8l2-1,3.1-3.7,4-2.7,1.6-1.6-.3-2.1-.5-.2-1,.5-.6-.4-.3-.3-.6-1.5v-.4l-.6-1.5v-.4l-.3-.5.4-1.2,1.3-1.8,1.7-2.3,2.1-1.8,1.9-.6h2c0-.1,2-.6,2-.6l5.3-3.6,3.9-.8h4.2c0,.1,9.2,2.5,9.2,2.5l.9.5.6.9v1.7l-.4,1.5-1.6,1.9-.4,1,1.2,2.1,2.2,2.3,1.4,2.4-2.2,4.3-1.1,3.2-.5,3.1.5,1.5,4.9,1,1,1v.6l-.5.7-.5.6-.3.5h.2c0-.1,0,.8,0,.8v.9h0v1.5l.6.4h.6l.5-.3.4-.5.5-.2,1.4.6,4.2,4.8.3.2.2.9.7,1.9.5,1.6.3.9.4.7-.9.5-.6.8-.5,1-.4,1.2-.8,1.5-1.3,1-1.4.7-1.3.4h-2v1.6h-.4l-.4-.5-.4-.3-.5-.2-1.7.5-1,.6-.7,1.3-.4,1.5v3.1l.7,3.7,1.3,1.9,1.7,1.3,1.6.3.8.3,1.4,1.4.8.6,2,.5.8.6.4,1.3-.2.5-.7,1.6v1.4l.7,1,.2.7.3,3.7.5,1.2,2.8,1.6,2.7,2.1.2.3.4.6.5,1.1.5,1,.8.6,2.6,1.2.5.4v1.1l-.6,1.3-1.3,2.3-2,2.4-.3.5.3,2.6.7,1.7v1.4l-1.7,1.4-1.2,2.2-.4.4h-.3l-.8-1-.5-.2-2.2.6-2.2,1-.8.7-1.1,1.9-.9.9h-2l-.5.2-.3.8.3.4.4.4-.2.6-2,1-2.2-.8-2.3-1.3-2.1-.3-.5.2-1.1.9-.6.3h-2.1l-2.2,1.4h-.2v.1l.5-.1ZM620.25,624.05l.5.4h5.2l.7-.3.6-.6.8-1.8.5-.7,1-.9.3-.5v-.9l-.3-.7-.4-.6-2.5-2.6-.8-.5h-.9l-.9.4-.7.7-3.1,5.2-.4,1.3v.8l.1.7.3.6h0Z"/>
      <path id="FRBFC" class="cls-1" d="M759.75,341.95h0l-.9-.4-1.4-.3-3.1.5-1.6-.2-.6-.5h-.5c0-.1-.6,0-.6,0l-.5.5-1.2.3.2,1,.6,1.3.3,1.1-.5.8-.9.7-1,.6-.8.2-.8.2v1.7l-1.7,1-.9,1.2-.8,1.4-.3,1.2,7.4-.8,1.1-.5.9.7,1,.9.6.9-.5,1-.5.4h-.7c0,.1-.6.5-.6.5l-.9,1.3h-.4c0,.1-.5.2-.5.2l-1.2,1.2-.4,1.8.3,2.3-4.2,3.1-1.8,1.8-1.2,2h0c0,.1-4,3.7-4,3.7l-1.8.7v1.5l-.8.5-.3.2-.2.5-1.5.6-.6.6-.9,1.4.8,1.7-1.4,2.1-4.2,3.1-6.6,2.1-3,1.8-.9,3.1.2.9.8,1.5.2,1v1.3l-.3.5v.3l-.5.8-1,3v.4l.1.5.3.5.5.5v1.5l-.2.7-.7.9-.7.5-2,1.1-1.7,1.8-.6.6-4.4,2.4-8.3,7.6-.9,1.1.2,1.2,1,1.2.5.5-2.2,2.8-2.1,3.7-.7.7-.3.6v.4l.2.5v1.3l.2.6v.6l-.8.7.2.2-2.5,2.8-.5.6-.4.8-2.1,2.3-.3.4-.8,1.5-.2.3-.3.2-.6.4-.4.5-.3.5-.4.5-2.2,1.9-.5.3-.7.2-1.3.2-6.8-.3-.5-.2-.5-.4-.2-.8v-.6l-.2-.8-.6-.9-2.9-2.6-.2-.3-1.2,1-.2.2-.5.8-.2.2-.5.3-.2.2v.3l-.3.7v.3l-.4.2h-.9c0,.1-.3.2-.3.2l-.2.2-.2.2-.5.8-.3.2-.3.2-1.2.5-.4.5-.2.2-.2.2h-.3c0,.1-1.7-.4-1.7-.4l-.5-.3-.3-.6v-1.7l.2-.6v-1.2l-.3-.4-1.3-.2-.5-.3-.8-1.2-.8-.3-1.3-.4-.6-.5-.5-.7-.3-1.2v-.9l-.4-.7-.6-.7-.5-.3-1.6-.5-.5-1.1v-3.1l-4.4-1.2-1.7-1-1.1-1.4-1-.9-.8-.4-.7-.2-1.8.2-3.8,1.5-1.4.2-1-.3-2.3-1.1-.9-.2h-.9c0-.1-.8.1-.8.1l-.3.2-.2.3h0v1.3l-.5.9v.4l-.7,1.6v.3l-.2.4-.4,3.1-.2.8-.2.7-.8,1.8-.6.8v.3l-.2.3v1.7l-.2.3-3.3,7.2-.2.6-.9,4.3-.4.9v1.2l.2.7-3.6-.5-1.2-1.1-.4-1.3-.5-1.3v-2.6l-.5-.5-1.2-.7-.3-.5v-2l-.6-.3-1.7-.6-.6.2-.3.3v.6l-.2.6v.6l-.3.5-.6.4h-.8l-.7-.3-.6-.6-.4-.6-.7-.8h-.5l-.5.3-.4.5-.8.3h-1.2c0,.1-2.4-.5-2.4-.5l-2.3-1.1h-.5c0,.1-.4.4-.4.4l-.2.5v.5l-.5,2.2-.5,1.9-.3.7-1.8,2.5-1.6,1.3-1,.5-.8.3h-.7c0,.1-.6.1-.6.1h-.5c0-.1-1.9-.9-1.9-.9l-3-.7h-.7c0,.1-1.6.7-1.6.7h-.7c0,.1-.6.1-.6.1l-2.5-.9-1.1-.2h-.7c0,.1-3.5,1.5-3.5,1.5h-1.7c0-.1-.5-.5-.5-.5l-1.6-1.3-.6-.4-1.5-.4-.5-.3-.4-.3v-1.1l.2-2.2h0v-.3l-.2-.9-.6-1.2,5.7-3.2.6-.6.7-.7v-1l-.2-.1-.2-.3-.2-.3v-.3l-.3-.3v-2l-.2-.3-.2-.2v-.3l-.2-.4v-.6l.6-2.5v-.8l-.2-.4v-.3l-.3-.4v-1.7l-.2-.4v-.2l-.3-.1-.8-.4-.8-.6-.6-.2-1.8-.3-1.8-.5-.3-.2-.2-.2-.2-.4h0c0-.1-.9-.7-.9-.7l-.7-.9-.3-.2h-.3c0-.1-.3-.1-.3-.1h-.9c0,.1-.3,0-.3,0l-.2-.2-.2-.2-.2-.2-.3-.2h-.6c0-.1-.3-.3-.3-.3l-.6-.5h0c0-.1-1-.5-1-.5l-.5-.3v-.6l.3-.7v-2.7l-.1-1.5v-.4l-.4-.3-.7-.4-1-1.6-.3-1-.3-.5-.3-.3h-.3c0-.1-.2-.3-.2-.3l-.8-.9v-.3l-.9-.8-.2-.4v-1l-.3-.6-1.6-2.8-1.7-.3v.3l-.2.6v.7l-.3.8-.5.5-.8.4-.2.6v.7l-.3.9-.6.5-.8.3-2.6,1.7-.7.3h-1.4c0-.1-.3-.5-.3-.5v-1.7l-.4-.6-.3-.5-.4-1.2-.4-.5-1.6-.5-.6.2-.5.4-.7,1.1-.6.6h-.7c0,.1-.5,0-.5,0l-1.3-.8-1-.4-1.7-.3h-1.8c0,.1-2.5,1.4-2.5,1.4h-.7l-.6-.3-.5-.5-1.7-2-.7-.6-1.1-.3h-.8c0-.1-.6.1-.6.1h-.6c0-.1-.4-.5-.4-.5l-1.2-.6-1.2-1-.9-1.1-.3-.6v-.3l-.2-.4v-1.3l.3-1.9v-.2l.4-.8,1.4-2.7.4-.9.2-.7v-1.3l-.8-1.4v-.4l-.3-.7v-.9l.6-1.6.6-2.1v-2.4l-.3-1v-4l-.2-.3-.2-.3-.2-.2-1.2-1-.3-.3-.3-.7v-1.4l.2-1.4v-1.4l-.5-1.6v-.4l-.8-2.7-.9-2.6-.5-.9v-.4l-.6-3.2-.3-.8-.3-.6-.2-.2-1-.8-.5-.4-1.5-2.1-.2-.2h-.3c0-.1-.6-.4-.6-.4l-.3-.2h-.3c0-.1-.2-.4-.2-.4l-.3-.4-.4-.8-.2-.5v-.7l.6-1.2.8-.9.7-1.4.2-.5v-.3l.3-.6.4-.9v-.4l.6-2.5v-1.2l-.5-.5-1-1.4-.4-.7-.6-1.7-.6-1.3-.5-.6-1.1-1.4v-.7l2.6-1.5.6-.2h2.4l1.3-.5-.6-1.4-1.8-2.4-.4-.9v-.7l.6-1.2v-.8l-.4-1-.8-1.7-.7-.8-1.7-1.6-.6-.4-.6-.2h-.6l-.6-.5-.3-.6v-1.6l.2-.9h0c0-.1.4-.6.4-.6l.5-.3.6-.2,1.3-.2h1.2c0,.1.5.1.5.1l.6-.2,2-1.3,2-.8.6-.4.5-.9v-1.3l-.2-.7v-.5l.3-.4.3-.5.3-.8v-.6l-.7-1-.3-.9-.2-2.4v-.6l.4-.2h.8l.6-.2.5-.5,1-1.2.6-.6,1.3-.7.5-.5.6-.8,1.1-2.9.4-1.1-.2-1.6-.2-.7-.2-.6-1-1.1-1.9-1.5-.6-.6-.4-.9-1.2-4.5-.2-.6-.5-.5-.4-.4-.9-.5-2.3-.7h-1.1c0-.1-.8-.1-.8-.1l.2-1.3.2-1.2.3-1.1.2-.5.4-.5.7-.5,2-1,.7-.8.3-.6.6-1.2h0c0-.1.4-.7.4-.7l.3-.5v-.6l-.1-.6-.4-.5-.2-.6-.2-.7v-1.8l.2-.6.3-.6.3-.5v-.5l.3-.9v-.7l.4-.3.4-.4h3.1c0,.1.4,0,.4,0l.4-.4.4-.2.5-.3h.7c0-.1,3,.2,3,.2l.7.3h.9l6.3-1.1h.6c0,.1,1.2.6,1.2.6h.6l.5-.2.9-1.8,1.6-1.7,1.1.9.2,1.2v.8l.3,1,.4.3,1.1-.3h1c0,.1,2,1.2,2,1.2l1,.9.8.8,4,5.4.8,1.2.4.9v1.8l.4,1.4v1.1l-.5.6-1.1,1-.3.6v.6l2.2,1.1,1.9,1.7,1.1.7h.8c0,.1,1.1-.2,1.1-.2l.3-.4v-.5l.4-.5h.6c0-.1.9.3.9.3l.5.6.2.7.2.7.3.7.9.8,1,1.4,4.4,7.7.3.6v.5l-.4.3-1,.2-.3.3v.7l.5.3,1.2.7h.6l1.2-.4h.7c0,.1.3.5.3.5v3.1l.3.8.5.5.5.3,1.7.2,2.4-.3h.4c0,.1.4.2.4.2l1,.5.5.2h.6c0-.1.5-.4.5-.4l.8-.9.5-.2h.6c0,.1,1.2.5,1.2.5h1.3c0,.1.6,0,.6,0l.6-.2.3-.4.3-.6.4-.4.6-.4h.8c0,.1.6.6.6.6l.6.6.5.2.4-.2v-2.7l.4-.2.4.4.9,1.7,1.1,1.4.7.7.6.3h.7l2.3-2,13.4-1.8.7-.4.4-.4v-1.4l.3-.8,1.2-1.2.9-.4h.8l2,.6h1l.7-.2,1.8-1,2,1.5,3.8.8.7.5.2.6-.6,1,.2.7.7.4,2.2.8.5.5.3.4v.4l-.2.4-.6,1.1-.2.6v.7l.3.8.4.4h.5l.4-.3.5-.9.3-.3h.7c0,.1,3.2,4.2,3.2,4.2l1.3,2.3,1.2,2.6.2.6v.6l-.2.5-.5.4h-.6c0,.1-1.2.2-1.2.2l-.6.2-.4.4v.8l.2.7.6.7.5.7h0v.6l.4,2.7.2.8.5,1.2.6.5h.6c0,.1.5-.1.5-.1l.3-.2.7-1,.4-.3h.7c0,.1.6.9.6.9l1,1.7.6.9.7.6,1.2.8.6.3h.6c0,.1.6,0,.6,0l.6-.2.4-.4.4-.5.2-.5.4-.5.4-.4h.7c0-.1.5.3.5.3l.2.5v.6l.2.6.6.7,1.1,1,1.6.9.7.3.3.3.2.4.2,1.3.4.9.5.2h.6c0-.1,1.8-1.5,1.8-1.5l.5-.3h.5c0,.1.4.5.4.5l.3.7h.5c0,.1.4-.2.4-.2l.4-.3.2-.7,2-4.6.4-.7.5-.5.7-.3h.7l1.4-.3,1-.4h1.1l3.4,2,.6.3h1.3c0-.1,6-2.2,6-2.2l.6-.4.5-.7.2-1.1v-.9l-.2-.8v-.9l.2-1.1.3-1.7v-1.1l-.6-1.5.3-.8.7-1.1,6.5-4.7.8-.7,1.2-2.1.5-.7.7-.3.7-.2.5-.2.3-.5v-.4l-.3-1.3,1.2-.4.7-.6.2-.4,1.1-2.2.3-.4.4-.3h.4l.3.4v1.1l-.2,1.2v.5l.4.4.7-.3.5-.4.7-.8,1.5-1,.5-.5,1.2-1.7.6-.8.5-.4.7-.3h1c0-.1,3,.5,3,.5l1.2.9.6.7.4.7v1.8l.2.5.6.4,1.1.3.9.7,1,.5h1.5l.9-.3.6-.4.7-.6,1.1-.4,3.2-.3,2.4,1,5.4,3.5.4.2.8.2h2.1c0-.1.8-.3.8-.3l.7-.4.5-.5.4-.6.6-1.1.3-.5.5-.4h.6c0,.1.8.6.8.6l1.2,1.3,1.2,1.7.6.6.7.6,1.9.7.8.5,1.3,1.3,4.6,3.5.4.3,1.7.2v1.5l.4.5.4.6,8.7,5.1,1,1,.7.8.3,1.2.2,2.1v1.2l-.2.6v.7l-.4.6-.3.6-1.1,1.5-.2.4v1.2l.4.6.5.3h1.8c0,.1.8.5.8.5l3.4,3.8.5.8.4.8v2.2l-.3.8-.2,1h0Z"/>
      <path id="FROCC" class="cls-1" d="M298.95,750.95l-.3-1.5-.4-2.1v-1.2c-.1,0-.1-.5-.1-.5v-.6c.1,0,.3-.6.3-.6l.5-.7.5-.6.4-.7.4-.8v-2.1l-.3-1.2v-.6c-.1,0,0-.6,0-.6l.4-.7,1.1-1.1.7-.9.4-.4h.5l1.8-.2h.7l.5-.5.3-.6-.4-1.6v-1c-.1,0,0-1.3,0-1.3l.5-.8.4-.5,1.3-.6.5-.3.6-.6.4-.7.8-2.1.5-.5.3-.2.8.3.4-.2.4-.6.2-.7.4-2,.2-.6.5-.5,1-1,.5-.6.3-.5.2-.5v-.9c-.1,0-.6-1.6-.6-1.6v-1.2l.2-.9.3-.7.4-.5.4-.5.5-.3,1.1-.3.5-.3.3-.6v-.8c-.1,0-.9-1.9-.9-1.9l-.2-1.1.2-3.2v-.6c-.1,0-.4-.4-.4-.4h-.6l-.5.3-.4.4-.3.5-.5.4h-.5l-.4-.5-.2-1.7.2-.8.4-.3.5.2h.5l.4-.2.2-.5v-.7c-.1,0-.4-1-.4-1l-1.5-3.7-.4-.6-.4-.4-.7-.4-.5-.5-.6-1.7-1.2-.8-5.8-1.3-2.1.2-.4-.6-.2-.4-.2-1-.2-.5-.9-.6v-.5l.2-.7.8-.9.4-1v-.7c-.1,0-.4-.6-.4-.6l-.2-.6v-.4c.1,0,.7-.3.7-.3h1l.3-.2.4-.5,1.2-2.9v-.6c.1,0-.1-.5-.1-.5l-.4-.5-.3-.5v-1.3c.1,0,.1-1.4.1-1.4v-.7c.1,0,.3-.8.3-.8l.7-1.1.5-1.4v-.6l-.3-.6-.2-.5-.4-1.1-.3-.5-.9-1-.4-.6v-.6c.1,0,.6-.7.6-.7l2.1-1.7.8-.3,2.2.3h2l.7-.7,1.2-1.5,1.5-1.1.6-.3.7-.2.9.3.4.4.3.4v.4c.1,0,.1.5.1.5l-.2.4-.5.7v.4c-.1,0-.1.6-.1.6l.2.4.3.3.3.2.5.2h.5l2.2.3h.5l.6-.5.4-.8v-.7c.1,0-.2-2.2-.2-2.2l.5-1,.3-.5,1.6-.6h.5l.6.1.5.8.4.2h.6l.7-.6.5-.6.4-.5.9-1.8.3-.4.6-.4h.6l2.9,1.1,1.1.6h1l.7-.2,1.6-1.1.9-.5,1.2-.2,4.5-2.2.6-.6.6-.3h.6l.9.2h1.1l4.2-1.6,1-.2,1.3.5.6.5,1.8,1.8.4.3,1.3-.3,3.8-2.3.2-.9v-.5c.1,0,.5-1.3.5-1.3l.4-.6.4-.4,1.4-.6.4-.4.3-.7v-.5c.1,0,.3-.5.3-.5l.2-.3.7-.3h1.2l1,.6.6.2h1.1l.5-.4.3-.5v-.7l-.2-.5-.5-.5-.5-.2-.2-.3v-.5l1.4-1,.7-.7,2.3-5.1.2-.5v-.6c.1,0-.1-.5-.1-.5l-.4-.4-.5-.3-1.6-.5-.4-.3-.2-.5-.5-.9v-.6c.1,0,.7-1.3.7-1.3v-.6c.1,0,.2-.5.2-.5v-1.8l.2-.5.4-.4h.6l.6.2.4.5.8.4,1.2.2,5.1-.4.8-.9h0l.1-2.2v-.8c.1,0,.1-.8.1-.8l-.4-.8-1-.8-.5-.5-.2-.6-.2-1.1-.2-.4-.2-.4-.2-.4v-.6c-.1,0,0-1.2,0-1.2v-.5c-.1,0-.3-.5-.3-.5l-.4-.5-.4-.5-.2-.3v-.5c-.1,0,.2-.6.2-.6l.6-.7,3-1.5,1-.8,1.1-1,1.5-1.6.7-1,2.7-5,1-.8.6-.3h1.1l.6-.3.5-.3.9-.9.5-.4,1.1-.4.7-.5.8-.7.9-1.3.4-.9v-.9c.1,0-.2-.6-.2-.6l-.4-.4v-.7c-.1,0,.1-.7.1-.7l.8-1.1.6-.4h1.2l.5-.3.5-.8.7-1.5.5-.8.5-.6,1.7-1.5.4-.5.3-.6v-.6l-.2-.8v-.6l.4-.6.3-.8v-1c.1,0-1.3-4.4-1.3-4.4l.3-1.4,1.8-1.4,1-.4.2-.2.6-.6.9-.2.2-.2.6-.7.5-.3h.4l.3.4.2.5v.4c.1,0,.5.2.5.2l1.4-.6h.8l1.8.5,1,.6,2,1.4,2.1,1.9.4.5v.6c.1,0,.4.5.4.5l.5.5,1.2.6.7.5.6.4.3.4.4.3.8.2h1.3l3.2-1.1,3.5-2h1.1l.6.3.3.4h.8l1.6-.9h.3l1.3-.3h3.3l.8,1.6.5,5.2.4,1.5.5,1.2,2.6,4.2,1,1.9.3,1v.9c.1,0-.9,4.7-.9,4.7l-.5,1.2v.7c-.1,0,.2.2.2.2l1,.5.5.5.2.5.4,2.5.3.9.3.7.8.7h.7l.6-2.1.9-.5h.6l3.8-1.3h.7l.6.1.4.5.2.4.5.4h.4l.4-.2.6-.4h3.7l2-.2,1.1-.6.6-.6.7-1.1,1.9-2.1.4-.5.2-.5.2-.5.3-1.7v-.5l.8-1.5,1.4-2,.4-.7v-.5l.3-1.2v-.5l.4-.6,8.2-8.8h.4l.4.4.3.6.3.5.9,1,.3.6.2.6v2.2l.1.4h.4l1.8-.3h.9l.3.2.6,1.4,1.3,1.6.3.6.5,1.7.3.6.4.4.5.3,1.4.5h.3l.3.4.2.5-.2.4-.6.3-.4.3-.2.4.2.5.3.6v.6l.2.5v1.8l.2.6.3,1.1.5,1.2.3.5.5.6,2,1.8.9-2.8.6-1.2,1.1-1.5.2-.7.4-3,.8-3.7.6-1.6.5-1.1,1.1-.6.6-.6.5-1.9.2-2,.4-.6.5-.5h.6l.4.1,1,1.6.4.4h.9l1.2-.9,3.5-3.6.8-.4.5.2h.6l.6-.2.7-.3,2.6-1.8.4-.2.8-.2h.7l.6-.2.5.3.2.5.3,1.1.5,1.8,3.5,6.8,1.2,1.3.9.5.8-.5.6-.2.6-.2h2.1l.6-.2.6-.3.3-.5.2-.6v-1.2l.2-.6.3-.5.4-.3h.7l.8-.2,1.1.2.6.5.5.6v.5l-.1.6-.2.5-.2.5v.4l.5.2,3.4.6.8.3.5.4,1.7,1.9,1.9,1.6.8.5.9.3.4.2.4.4.4.3h.3l1.5.5-.2,2.5.2,1.1.2.9.2.4v.2l.9,2.5.5,3.6.7,2.4.6,1.3,1.3.9.9,1.6.5,1.3,1.8,6.8,1.7,1.6.9,1.9.8,1.2v.7l-.2.5-.4.4-.2.8.3,1.1.2,2.8.3.5h.5l1.1-.3h1.7l1.1-.5h.6l.3.4.4.6.5.4.7.2,4.2,2.5.7.3h1.2l.5-.5.7-1,.4-.4,1.6-1,1.4-1.3.5-.3,1.9-.5h.9l.4.5.2.5v.6l-.3.5v.6l.2.6.8.8.6.2h.7l.6-.5.4-.5.2-.5v-1.6l.3-.5.7-.4,1.8-.2,1.6.2,1.8.8.3.4v.2l.3.2.5.4.2.2.3.4.2.2.4.3,1.6.9,2.9.7.5,2.1.7.9.5.6v.4l.2.3v1.5l.4.3.7.5.6.5.2.5.2.3.2,2.6v1.8l-.2.3v1l.2,2.6.2.5.2.2h.2l.5-.3h1.6l.4.3.3.3,2.9,4,1.2,1.3.2.4v1.3h-1.7v2.9l-.2.3-.4.5-.4.5-.3.3-.8.5-.4.3v.2l-.5.4-2.1.9-.8.4-2.3,1.9-1.9,1.1-.7.6-.4.4v2.3l.2.3.3,1.8v1.2l-.2.9-.7,2.3-1.1,2.3v1l.2.2v1l-.3,1-.3.5-.2.2h-.8l-.2-.2-.5-.3-.5-.3-2-.7h-.9l-1.6.6-1.4,1.1-1.6,2.3-.3.6-.2.8-.2.5-.5,1.1-.2.3v.3l.2.2.2.2h.2l.4.2h.9l.2.2v.5l-.3,1.1-.3.5-.3.3h-1.4l-.3.2-.5.3-.2.3v.9l-.2.3h-.3l-1.1.4h-.3l-2.5,2.3-1,.6-.7.4-1.4.2-.5.4-.4.5-.5.3h-.6l-.3.2h0v.4l-.2.8-.6,1.3-1.6,1-1.5-.4-1.3-.6-1.7-1.3-1-2,1-2v-.2l-1.7-1.4-3.6-.3-3.5.4-2.4.9-.8.7-12.3,10.2-7.3,3.2-2,1.7-4.8,6.3-1.3.6-2.4-1.3-1.5.3h-2.7l-4.2,1.9-4.5,3.7-1,1.3-.5.8-.8.7-.7.9-1.1.9-.8,1.1-.7,1.5-1.1,1.2-1.4,1.2-.6,1.6-.5,1.3-.6,1.5-1,2.3-.4,1.6-.5,1.3-.6,2.5-.4,1.8.2.8.8.5v1.7l-.5,5v.9l-.4,3.9v3.4l.2,2.2-.4,3.5.3,4.5.2,3.5.4,2.7.9,1.1,1.3.6,1.7.4,1.4.5.5.8v1l-.2.9.5.8.6.6,1,1.6.3,1.8v.3l-2.7.5h-3.2l-1.3-.5-.7-.5-.6-.7-.5-.7-.4-1h-2.2l-.7-.2-1,.7-2-.8-2.1,1.6-1,.2h-2.1l-1,.7-1.8,1.8-1,.6-1.3.2-2.4-.3h-1.3l-1.1.6-2.6,2.1-.5.7.6,1.6.7.9v.3h-1.6l-1.3-.2-2.9-1h-1.2l-.5.5-.5,1.3-.4.4h-.6l-.7-.2-1.3-.7-1.1-.3-1.2-.9-1-1.3-.5-1.4h-.9l-2-.5-3.6-1.7-.7-.6-1.7-1-2,.2-3.8,1.2-2.9-.3-1,.4-.3.5-.5,1.2-.3.5-1.4,1.1-1.1,1.2-.7.4-1,.3-1.6.2-.9-.2-.7-.5-1.2-1-.6-1.3-.8-3.1-.9-1.5-1-.4h-1.1l-1.5-.4-3.4-2.4-1.3-.5-3.9-.5-1.1-.5v-.7h-.3l.2-2.1.4-1,.3-.7,1.1-1.1,1.6-.2-.3-.3-.5-.8-1.4-.4-1-.7.5-1.7-7-.7-.7-.3-3.4-2.3h-.9l-1.8.8h-2l-.9,3.2-1.4.5-.9-1.1-1.1-2.9-1.1-1.7-1.1-1.9-.6-.3h-.5l-.3-.4.2-1.2-1.4-.4h-7.7l-2,.7h-.7l-1.1-.9-.6-1.2-.5-1.3-.6-1.2-1.1-1-1.3-.4-5.2-.3-.5-.3-1-.9-.6-.2-.6.2-.6.5-.6.3-.6-.2-1-1-.5-.4-1.9-.8-2.7-1.6h-2.2l-1.1-.3-2.1-.8h-2.8l-1.4.6-.3,1.2v1.8c.1,0-.8,2.3-.8,2.3l.7,1-.4.4-.3.3-.4.9.9.3.8.9.4,1.3v1.4c-.1,0-.2.2-.2.2l-.4.7-.8.2-2.2-.2-7.7.2-1.1-.5-2.3.7h-1.2l-1.3-.2-.3-.3v-1c-.1,0-1.8-1.4-1.8-1.4l-1.2.4-1.1,1.1-1.7,2.4-.9.2-1-1.2-1.3-2.3-1-.5-3.3-.9-1,.2-1.2.8-3.7.5-4.8,1.8-2.2.2-2.4-1-.4-.4-.3-.4-.4-.4-.8-.2-.6-.3-.2-.5v-.6c-.1,0-.5-.5-.5-.5l-1-.8-.7-1.3-.4-1.4.2-1.5-1.2.5-1.7.5-1.7-.2-.7-1.6-3.6-2.2h0l-.4.2ZM438.25,782.85l.9.7,1.4.2h.1l.7-.2h.2l-.7-1.2-.6-1.4-.7-.9-.7.3-.7,1.5v1h.1ZM313.65,704.65l.2.4v1.8c-.1,0-.6,1.2-.6,1.2l-.2.3-.2.2-.2.2h-.8l-.6-.3-.4-.6-.2-.9.2-1.7.3-.8.5-.6h.7l.8.2.3.3.2.3h0ZM310.45,715.65l-.5-.2-.5-.7-.2-.5v-1.8c.1,0,1.5-1.7,1.5-1.7l1.5.9.6,1.9-1.1,1.9-.6.2h-.7,0Z"/>
      <path id="FRPDL" class="cls-1" d="M251.05,248.55l3.1.5h2.1l2-.6.3-.2h.2c0-.1.5-.4.5-.4h.6c0-.1,1.3.4,1.3.4l.2.2h.4l.4.2,2.3-.4,1,.9.7,1.2.8,1.8.3.5.5.3.5-.2.4-.3h.5l.5.3.4.5.5.5h.6c0,.1.7-.2.7-.2l.4-.5.2-.6v-.5c.1,0,.6-.3.6-.3l3-.8h.6c0,.1.5.6.5.6l.2.5.2.5.6.2,5.3-1.3.7-.3.5-.5,2.1-2.3.5-.3.7-.2h.7l3.2.3,4.1,1.1.9-.2.3-.4.3-.4.6-.9.7-.4.9-.2h1.4l.8-.3.5-.5.4-.5v-.6c.1,0,0-.6,0-.6v-.7c-.1,0,.1-.5.1-.5l.5-.3,3.9,1.5.5.5.3.7-.2,1-.4.7.2,1,.6,1.3,2.1,2.5,1.1.9.9.4h.6c0,.1.5.2.5.2l.5.7.3.7.3,4.8,3.7-.5h.6l.8.2,1.1.4h.8l.4-.4.2-1.2.2-.5.4-.3.3-.2h.4c0-.1.5-.1.5-.1l.7-.2.3-.2.3-.4.5-.6.4-.9.5-.6.6-.6.8-.2.6-.3,1.1-.8,5.4-1.3h.9l.9.2,2.6,1.2.8.4.4.5.4.9v.7c.1,0,0,.7,0,.7l-.3,2.5v2.6c.1,0,.3,1.2.3,1.2l.3,1,.5,1.2.6.8,1,.8,1.7,1,1.2.2.8-.2.6-.2.5.2.3.8v.7c.1,0,.1.5.1.5v.9c-.1,0,.1.3.1.3l.8.5,5.3,1.4h2.3c0,.1.1,0,.1,0h.1c0-.1.3-.3.3-.3h.6c0,.1.7.5.7.5l1.1,1.4,1.3,2.1.6.8.7.7,1.5.9,1.2.3,1.7-.4,3.1,2.3.6.2h1.9c0,.1.6.3.6.3l.5.3.4.5v.5l-.6.7-1.2.5-2.2,1.6-.7.3-.3.5v.8c.1,0,.5.4.5.4l.4.3.4.5v.4l-.6.5-.6.2h-1.8c0,.1-.4.6-.4.6v.8l.2.7.4.6.2.6.3.4h.4c0,.1,1.1.2,1.1.2l.3.5v.9c-.1,0-.6,2-.6,2v1.1c-.1,0,0,.9,0,.9l.4,1.3-.3.8-.5.9-1.4,1.4-.9.6-.7.7-.4.9v.9c-.1,0-.2.7-.2.7v.7c.1,0,.1.7.1.7v2c-.1,0-1.7,5.1-1.7,5.1l-.6.8-.8.8-1.9,1.2-1.3.6h-.2l-.6.2-1.3.9-1.4,1.5-.7,1.9.5,1.2h0c0,.1.2.7.2.7v.5c-.1,0-.3.4-.3.4l-.6.3h-.9c0,.1-.8.3-.8.3l-3.3,1.7-2.5.6-1,.6-.5.6v.4c-.1,0-.6.3-.6.3l-.8-.2-1.4-.9h-.7l-.7.6-.3.6v.7c.1,0,.2.5.2.5l.2,1.2v.6c.1,0-.1.3-.1.3l-.9.2-3.5-1.1-1.8-.3-2.7-.7-1.4,3.9-.3,1.1v1.2l.4,1.6v.7c.1,0,.1.7.1.7l-2,4.5-.3,1.2-.7,2.3v.9c-.1,0,.3,1.7.3,1.7v.8c-.1,0-1.8,2.9-1.8,2.9l-1.7,2.4-.7,1.2-.3.7-.4,1.1-1.1,5.2-.9,6.9-3.3-.6-1.1.4-2,2.6-.3.6v.7c-.1,0-.2.7-.2.7l-.5.8-.7.4-1.7.6-.6.5-.3.5-.2.5-.6,1.1-1.5-.5-.3-.4-.3-.7v-.7c-.1,0-.4-.8-.4-.8l-.7-.6-.7-.2h-.6l-1.3.4h-3.5c0-.1-6.6.7-6.6.7l-1.7.8-3.5,1-.8.2-1.4-.8h-.7c0-.1-.7-.1-.7-.1l-1.2.5-.6.3-.5.6-.2.5v.6c.1,0,.8,1.1.8,1.1v.5c.1,0-.2.5-.2.5l-2.7,1.3-1,1.1h-.3c0,.1-1.2.6-1.2.6l-3.9.4-3.5-.3-1.7-.5-3.6.6h-1.4c0-.1-.6-.4-.6-.4l-2.4-1.6-.7-.2-.9-.2-.4.3v.4c-.1,0-.1.2-.1.2l-.2.6,2.3,1.6.8,1,.8,1.7.6.9,1.7,1,.8,1.1.2.8v1.9c.1,0,.5,1.5.5,1.5l.6.9.5.7,3.6,2.3,1.3,1.2.6.8.2.5v.4c-.1,0-.3.6-.3.6l-.6,1.1v1c.1,0,.6,1.5.6,1.5l1.7,2.7,1.7,3.5.2.9.2.7v2c.1,0,.5.9.5.9l.7,1,.4.7.2.7v1.8c.1,0,.6,2.6.6,2.6v1.4c-.1,0-.4.5-.4.5l-.5.4-.4.6-.2.9,1,4.8v.6c.1,0,0,.6,0,.6l-.5,1.4v.9c-.1,0,.2,1.3.2,1.3l.4.4h.4l.4-.3h.4c0,.1,2.1,1.8,2.1,1.8l.7.8.2.7-.2.7-.4.5-.5.2h-.8c0-.1-.5-.1-.5-.1h-.6l-.5.3-1.9,2.1-.4.3h-2.3l-.6.2-1.6.9-.5.3-.9.6-.8.2-4.2-2.7-1.6-.3h-1l-.9.3-.4.2-2,.4-.7.2h-.6c0,.1-1.1.2-1.1.2l-.7-.4-.2-.4.3-.5.5-.5.3-.6v-.6c.1,0-.4-.7-.4-.7h-.5c0-.1-1.1.4-1.1.4l-.6.2h-1.3c0,.1-3.8,1.1-3.8,1.1l-.6.2-.4.5-1.1,1.6-.3.5-.8-1.2-2.8-.2-2.3,1.4v2.9c.1,0-1.6-.5-1.6-.5l-1.2-1.5-1.1-1.7-1-.2-.6-.2-1.9-1.1-1.4-1.2-.8-.4-3.3,1.1h-1.6c0-.1-.7-2-.7-2l-.3-2.3-1-1.6-1.4-1-1.7-.3-4.2-.2-1.6-.6.5-1.1-1-1-3.3-.5-2.1-1.9-1.7-.4-.8-.5-.5-.8-.7-1.9-.6-1v1.1c.1,0,.4,1.5.4,1.5v.8c.1,0-.2.4-.2.4l-.5-.4-.6-.8-1.4-6.6.3-1.5-1-.5-.5-1-.3-1.2-.4-1-.9-1.1-1-.9-.7-.8-.6-2.3-.8-.7-1.1-.3-1-.2-.5-.5-1.9-3.8-3.4-3.6-1.9-1.4-1.6-.5-.8-.6-.4-1.4-.2-1.7v-1.6c-.1,0,0-2,0-2l.4-.9,1.6-1.1-.3-1.3.9-1,2.4-1.5.7-1.3,1-3.3.8-1.6,1.1-.8v-1.6c-.1,0-.8-1.6-.8-1.6l-.7-1-1-1-3.7-2.1-7.1-1.2-2.2-1.3.8-.5.7-.6.7-.6,2-.2.5-.4.2-.7.2-1.4v-1.2l-.7-1.4-.2-1.4v-1c.1,0,.4-1.2.4-1.2l.4-1.1.5-.8,1.5-.6,5.7-.6.4-.3.4-.2h.5c0-.1.5.5.5.5l.5.4,3.1.9h1c0-.1-.5-.7-.5-.7h.8l.6.2.6.4.6.6h-1.3v.7l2.6,1.9,2.5.5.7.4,1.3,1.5,1.4.6h3.4c0,.1-1.3-.7-1.3-.7l-2.5-.5-1.1-.9-1.9-2.2-2.1-1.9-2.2-1.3-1.2-.4h-1.5c0-.1-.5-.3-.5-.3l-.9-.9-2.3-.7-8.6.6-1.9,1.2-.4.7-.3.6-.3.5-.7.6-1.8.6-1.5,1.4-1.1.5h-1.2l-1.2-.5-.9-.8-1.5-1.8-1-.6h-1c0-.1-.6-.1-.6-.1h-.5c0,.1-.4.6-.4.6l-.3.6v.5c-.1,0-.1.3-.1.3h-1.8c0-.1-5.8-3.1-5.8-3.1v-.6l1.4.2,2.6,1.2,1.4-.2,1.1-1.2-.6-1.3-1.2-1.2-.9-1.3-.5.3h-.2c0,.1-.2.3-.2.3l.3.7v.3l-.3.9h-.4v-2.6c-.1,0-.9-1.4-.9-1.4l-2.5-1.7,4.9-3h.7c0,.1.6.3.6.3l1,.2v.6h-.4c0,.1.4.7.4.7l.6-.7,2.2-1.2.2-.6-1-.2h-1.5l-1-.4.5-1.3-1-.7h-.3c0-.1.1-.1.1-.1l.4-.8.4-.3h.8c0-.1.6.2.6.2l.6.4.6.3h.6l1.2-.3h1.8c0-.1.7-.5.7-.5l.9-1.2.5-.9.3-.7.2-.5h.1c0-.1.2-.3.2-.3l.4-.2h.7c0-.1.4.1.4.1l.3.2h.1c0,.1.1.3.1.3l.3.2h.5c0,.1.8,0,.8,0l.8-.3,1-.7h.6c0,.1.2.3.2.3v1.5c.1,0,.3.4.3.4l.4.2h.5c0-.1.4-.4.4-.4l.5-.8.3-1,.3-.7.7-.6.7-.2.8-.7.6-1.2.7-4,.5-1.2.2-.4v-.4c.1,0,0-.4,0-.4v-.3l.2-.4v-.8c-.1,0-.3-.3-.3-.3l.5-1.6,1.9-1.1.9-.7.3-.2h.4c0-.1,2-.5,2-.5h2.1c0,.1,1.2-.7,1.2-.7l4.5-1.7,1.9.8,1.2.2h.6l7.5-2.4,1.7-1.1,1-.9.3-.6.4-.6.5-.6.5-.5,1.3-1,6.4-3,1-1,.7-.4,1.9-.2,1.3.2.7.2.6.4.4.7.2.6.9.7.8.3,6.2,1.1.5-2.7.6-.7.3-.6.3-.8.5-2.4.3-.9.6-1.5.5-1.4.6-3.2.4-1.3.3-.6.3-.6.9-1.1.5-.5.6-.4.7-.3.7-.2h2.2c0-.1.6-.2.6-.2l.6-.3.5-.3.5-.3h.1v-1.4l-.2-1.6v-2.1c.1,0,.1-.7.1-.7l-.3-.5-1-.9-.3-.5v-.4c-.1,0-.2-.3-.2-.3l-.7-5.7v-.4c.1,0,.3-.3.3-.3h.2c0-.1.1-.4.1-.4v-.4c.1,0,.1-.5.1-.5l-.4-2.7v-.6c-.1,0-.3-1.8-.3-1.8v-.6c-.1,0-.2-.4-.2-.4l-.4-1-.2-.2-.2-.3-.2-.4v-.7l.3-1.1.3-.7,1.2-2.4.2-.5v-2.9c-.1,0-.8-6.9-.8-6.9v-1.6l.2-1.6v-3.8h0ZM176.75,412.65l.7,1.2-1.4-.6h-5c0-.1-.7-1.7-.7-1.7l.5-.8,1.1-.2,1.2.2,2.4,1,1.2.9ZM184.45,389.65l.6.6.3,1.3.2,1.9-.3,1.2-1-.6-1-2.1-1.3-2.1-1.5-1-1.7.8-1-1.4-.9-3.5-1.1-1.3,3.5-.2,1.2.2,1.2.8.2,1-.3,1.2v1.3c.1,0,.8.8.8.8l2.1,1.1h0Z"/>
      <path id="FRBRE" class="cls-1" d="M251.05,248.55v3.8l-.2,1.6v1.6l.7,6.9v1.8c.1,0,.1,1.1.1,1.1l-.2.5-1.2,2.4-.3.7-.3,1.1v.7l.2.4.2.3.2.2.4,1v.4c.1,0,.2.6.2.6l.2,1.8v.6c.1,0,.5,2.7.5,2.7v.9c-.1,0-.2.3-.2.3h-.2c0,.1-.2.4-.2.4v.4c-.1,0,.6,5.7.6,5.7v.3c.1,0,.2.4.2.4l.3.5,1,.9.3.5v1.7c-.1,0-.1,1.1-.1,1.1l.2,1.6v1.3h-.1c0,.1-.5.4-.5.4l-.5.3-.6.3h-.6c0,.1-2.2.2-2.2.2l-.7.2-.7.3-.6.4-.5.5-.9,1.1-.3.6-.3.6-.4,1.3-.6,3.2-.5,1.4-.6,1.5-.3.9-.5,2.4-.3.8-.3.6-.6.7-.5,2.7-6.2-1.1-.8-.3-.9-.7-.2-.6-.4-.7-.6-.4-.7-.2-1.3-.2-1.9.2-.7.4-1,1-6.4,3-1.3,1-.5.5-.5.6-.4.6-.3.6-1,.9-1.7,1.1-7.5,2.4h-.6l-1.2-.2-1.9-.8-4.5,1.7-1.2.8h-2.1c0-.1-2,.3-2,.3h-.4c0,.1-.3.3-.3.3l-.9.7-1.9,1.1-.5,1.6.2.3v.5c.1,0,.1.3.1.3l-.2.4v.7c.1,0,0,.4,0,.4l-.2.4-.5,1.2-.7,4-.6,1.2-.8.7-.7.2-.7.6-.3.7-.3,1-.5.8-.4.3h-.5c0,.1-.4-.1-.4-.1l-.2-.4v-.3c-.1,0-.1-.4-.1-.4v-.8l-.2-.2h-.6c0-.1-1,.6-1,.6l-.8.3h-.8c0,.1-.5,0-.5,0l-.3-.2v-.2c-.1,0-.2-.1-.2-.1l-.3-.2-.4-.2h-.7c0,.1-.4.3-.4.3l-.2.2h-.1c0,.1-.2.6-.2.6l-.3.7-.5.9-.9,1.2-.7.4h-.6c0,.1-.6.1-.6.1h-.6l-1.2.3h-.6l-.6-.3-.6-.4-.6-.3h-.8c0,.1-.4.4-.4.4l-.4.8h-1.1c0-.1-.8-.6-.8-.6l.6-1.7-.9-1.2.7-.6,3.8-.2,2.3-.6h1.3l-1-.2-1.7.3h-1.1c0-.1-4.7-1.9-4.7-1.9l-1-.2h-.8c0,.1-2.1.8-2.1.8h-2.3l-.5.2-.4.3h-.4c0,.1-.6-.5-.6-.5l.9-.2,1.1-.7.9-1,.5-1.2-1,.9-.8.2h-.9c0-.1-1.1.1-1.1.1h.5c0,.1.4.3.4.3l.2.4.2.6h-1.6l-.7-.2-.7-.5v2.2c-.1,0-.9.5-.9.5l-2.1-.7h-1l-3.2,1.2h-1.2c0,.1-1,0-1,0l-.8-.4-.8-.8v-.4c-.1,0-1.1-1.8-1.1-1.8h-.2c0-.1-.3-.6-.3-.6l-.6-.2-.7-.2h-.2c0-.1.1-.2.1-.2v-.4l-1.1-.4,1.1-.8h1.7l.9,1.8h.4l.3-.4.4-.2h.4c0,.1.6.6.6.6v-.5c.1,0,.4-1.4.4-1.4l1,1.2,1.5.5,1.7-.2,1.3-.9-.4-.6,2.4-3.4.3-1.7-1.4-1.8v.6l.6.6v.6c.1,0-.3.5-.3.5l-.8.2.9.6-.3.4-.2.2h-.8c0,.1-.3-.4-.3-.4l-3.1-2,1.3.2,1.3.4-.8-1.1-.7-.4-1.9-.4.8.6-1.3.6-3.2.3-.6.7-.5,1.1-1.2.6-2.1.5v-.6h.4v-.7h-.8c0,.1-.2.3-.2.3l-.2.4h-.5l-.2-1.1v-1c-.1,0,0-.7,0-.7l.6-.4h-.9l-.7-.5-.4-.9v-1.1h-.6v.7c.1,0,.4,1.2.4,1.2v.6c.1,0,.1,2.2.1,2.2l.2.9.5,1,.7.9.7.7-.2.6v.3c-.1,0-.3.3-.3.3v-.3c-.1,0-.8-.9-.8-.9l-.5.3-.5-.5-.7-1-.8-.7.3,1.2-.3.5-.6-.2-.3-1.2-.2-1.4h-.4c0,.1-.2,1.1-.2,1.1l.4,1.3h-.9c0-.1-.4-.2-.4-.2l-.4-.5-1.9,1.1h-1c0,.1-.9-.4-.9-.4l.4-.3.4-.4-.6-.5-.7-.5h-.7c0,.1-.5,1-.5,1l.3.2.2.3.3.2-.7,3.1.4,2.6,1,2.1,1.4,1.6h-.9l-1.2-.4-.4.4h-.4l-.8-2.6v-.9c-.1,0,0-1,0-1l.5-1.5.2-1.3-.2-2.1-.4-1.6-.7-1.2-.9-1-.6-.4-.7-.3-.5-.3-.3-.6v-1.2c.1,0,.9-2.6.9-2.6l4.6-2.1-.2-.5v-.5c-.1,0-.2-.7-.2-.7v-.9l-.3.2-.7.3-.3.2v-2.6h-.4l-.5,1-.6-.2-.9-.4-.9.2.8.3.6.7.4,1,.3,1.2h-.3c0,.1-.1.2-.1.2h0c0,.1-.1.5-.1.5l-.7-.6-.4.4-.5.6-.9.2.2.3.7,1-.9.4-.3.8-.2.9-.6.4-.4-.4-1.9-2.1-1.6-.5-2.7-.7h-1.6c0-.1,1.1-.6,1.1-.6l1.1.2,2.4.9v-.6l-.9-.6-1.1-.4-2.6-.3v-.6h.5c0-.1.3-.3.3-.3v-1.3l.2-.4,1.1.2h.4c0-.1.8-2.2.8-2.2l.5-1.1.8-.6v-.7l-1.3,1.6-1.7,1.6-1.9,1.1-1.3.4.5.2.4.4.3.5v.6l-5.1,1.2-.9-.2-.2-.5-1.9-2.4-.9-1.9-.7-.8-.2-.4-.3-.7-.6.6h-1.1l-2.1-.6h-1.6c0,.1-.6,0-.6,0l-.4-.3-.8-.8-.2-.2-2.4.2-1.2-.5-.5-1.2-.5-.3-3.3,1.8-.9-.8h-1.3l-1.4.3h-1.1v-.4l-1.1-2.3-.5-.4-.4-.4-.2-.5.2-1.1h-.5l-.4-.2-.8-.5-.2-1-1.1-1.3-1.7-1.2-1.6-.3.5,1.9-.4,1.4-1.4,1.5-1.3-.3h1.2c0-.1.3-.5.3-.5l.2-.8-.7.2h-.6c0,.1-.5.3-.5.3l-.3.8-1.8-1.5-.8-.3h-1c0-.1-.7-.5-.7-.5l-.8-1.1-.6-1.5-.2-1.5-.7,1.1.4,1.4.8,1.3.8.7v.6h-.8l-.6.3-.6.4-.6.6-1.2-2-.8.2-.2,1.1.9.7-.2.3-.2.3v.6h1.7v.7l-2,1.9-1,.6-1.5.4-9.1-.4v-2.5l.5-.3h1.1c0-.1.3-.7.3-.7l-.2-1.6-1-2.4-.6-2.5-.9-1.7-2.9-3.9-5.5-4.3-.6-.3-.9.5-.7.9-.8.5-1.9-1.9-1.1-.2-2.1.2-4.6-1.4.4-.3.3-.5.3-.6.4-.7v-.7l.3-.3h.2l.5.5.3.2,20-4.5,3.5,1.1.9-.4.3-.7.6-2.6-.3-1-.9-1.2-.2-.6-.3-2.1-.8-.8-2.6-.6-.5-.3-.4-.5-.3-.5v-.6l-1.7.5-3.3-2.1-1.7.6-.9,1.7-.9,2.1-1,1.7-1.6.6.5-2,.3-.6-.7-1.1-.4-.8v-.6l.2-1.1.5-.4.2-.4-.4-1-.8-.2h-3.7c0-.1.2-1.1.2-1.1l-.2-.9.7-.4h.5c0,.1.5.3.5.3h.7c0,.1.8-.2.8-.2v-1.6l1-2.9.8-.8,1,.5-.8,3.4,1.7.9,5.6-.4.6.3.4.4.5.3.8.2h.7c0-.1,2.9-.9,2.9-.9l4.2-.3-.4.4h-.4c0,.1-.9.1-.9.1l1.3.6,5-1.1v-.7h-1.9c0,.1-.7-.2-.7-.2l-.3-1.1-.5.7-.9.2-.8-.3-.3-.9h-.4c0,.1-2.6.3-2.6.3l.5-.9.2-.2.6-.2v-.4l.3-.4.6-.4,1.2-1.4h-1.1c0,.1-1.4,1.1-1.4,1.1l-.9.3v-.7h.4v-.7h-.4l-.2.5-.4.5-.2.4-1-.4-1.9,1.3-1.4.3.2-.4.2-.2-.4-.6-.5.5-.7.4-.9.2h-.8c0,.1,0-.5,0-.5l3.5-4.3.7-.6,5.9-3.5-1.1.4-1.9,1.1-1.3.4-4.1.7-2,.8-3.9,2.5-3,.8-1.8.9-1.2.2-1.1-.3-2.2-.9-1.2-.2-.2.3v1.4l-.6.3h-3.2l-.8-.3-.5-1-.4-1.9h1.1v-1.3l-1-2.6v-1.7l.2-1.8.7-1.2,1.2-.4v-.6l-1.6-1.1.6-2.7,1.6-2.9,1.1-1.6.6.4.7.3-.5-.7,1-.7,1.2-.4,1.9-.2,1.2.3,2.1,1.2.7-.2-1.4-2-.5-1.3.9-.6,2.8.8h1.1c0-.1-1.6-.8-1.6-.8v-.3l.3-.4-.2-.3-.5-.3v-.6h4.8l1.4-.2,2.1-1h1.4c0-.1-.9-.6-.9-.6h-.3v-.8l1.7-.3,1.7-1,1.7-.7h1.6c0,.1,1.1,1.4,1.1,1.4l-.4,2.1,1.4-.2,1.9-1.1.7-.2.7.2,1.4.5h.9v-.7l-1.2-.3.3-1,1.1-1.1,1-.7,1.2-.5,1.4-.3h1.4c0,.1,1.1.8,1.1.8l.4-.6h.3l.3.4.3.7h.4l.4-.4.2-.6v-.7l-.2-.8.9-.2.8-.3,1.3-.8,2.2-.7.3.4v.8l-.3.7v.5l.8.3v.6h-.5v.7l.7.4.4.7v.9l-.3,1.1,1.8-1.7.9-.5,1.2.3-.6.5-.3.2v.6l.8,1,1.8,1.2.8,1,.5-.6-.5-.7.5-.6-.3-.6-.2-.8-.4-1.9h.4l.2.6.2.3.5.5-.2-1.7.2-1.8.5-1,.8.6.2-.4.2-.5v-1.1l.8,1.1,1.2.4,2.8-.2.7.3,1.4,1.3.7.4h.8l2.2-.6v1.6l1.5.4h1.8l.9-.4-.6-2.2-.2-1.4.2-.7,3.2-.6-.9-.6-2.1-2.6-.3-1.6.7-.8,1.7-.8,1.4-2.4.3-.8h.4l.6.5h2c0,.1,2.1,1.4,2.1,1.4h.8l-.3.3-.2.3v.3c-.1,0-.3.4-.3.4h1.5c0,.1.7.1.7.1l.6-.4.6-.8.4-.3,5.2-1.9.8-.6h.4l.6.2,1.8-2.4,1,.3.4,1.3v1.9l-.5,1.7-.8.9v.4c.1,0,.2.3.2.3l.3.6.2-1.2.5-.9,1.9-2.3,1.5-1.3.5-.7.7.3,1.1-1.4.8-.3.8.5.4.9v1l-.4.9v.6l.9.7-.5.7-.8,2.5-.4.7-1.3,1.8v.7h.4l2.1-4.2,1.2-1.8,1,.2.6-.5.6-.2.7.2.6.5-.4.7h.2c0,.1.1.1.1.1h.1v.5l-.6.2-.5.3-1,.8v.6l.8.7,1.6.6h3.1c0,.1,1.3.6,1.3.6v.8c-.1,0-.1.5-.1.5v.7c.1,0-.5.5-.5.5h-.3v.7l.9.6,1.1,1,1,1.1.4.9,4,3.5.6,2.8.3.7v.5c.1,0,0,.5,0,.5v.4c-.1,0,0,.6,0,.6l.3.3.8.4,1.5,1.1,3.5,1.8-.2.8-.2.7-.4.5-.4.5h.7l.6.3.5.6.5.7.9.7v-.9c.1,0,.1-1.3.1-1.3l.3-.7h2.4c0,.1,1-.3,1-.3l1.2-1.3,1.5-2.4.5-.6.6-.5,1.1-.3,4.2-2.6.9-1v-.7h-.6l-1.2-.6,2.8-.8,1.3.2.6,1.2,1.6-.6,1.9-1.2,1.6-1.6.8-1.7.3,1,.4.7.6.3h.8c0-.1,0,.6,0,.6l-.4.4-.3.4-.2.6-.3.5-1.7,1.9,1.1.9,1.1-.8,1.3-1.3,1.4-.7.3.5.3,2.2.2.5.7.3.4.8.3,1.1v1c.1,0,.7-.4.7-.4l.5-.7.2-1v-1.1l.2,1.4.4,1.1.5.6,1-.6v-.6h-.3c0-.1-.6-.6-.6-.6l.7-1,.8-.6h.7c0,.1.8.9.8.9l-.4-.5-.4-.7-.5-1.3,2.8-1,3-.3v.4c.1,0,1.4,2.4,1.4,2.4v1.1c.1,0,.4.9.4.9l.6.7.7.2-.2,1-.2.3,1.6,2.5.4,1.2-.3,2.1.6-.7,1.9-1.2-.5-.4-1.2-.9.4-.7-1-1.7-.2-1.5h.4l.3.5.3.2.7.6-.5-1.1-.5-.5-.7-.3h-.7l-.5-.5-1.2-2.8-.6-1.2.2-.7.5-.9.7-.6.9-.3.3-.3v-1.3c.1,0,.6-.3.6-.3h2.3l-.3-.7,6.3-1.3-.2.4v.4l.2.5.4.7-1.5,2.5v2.2l1.4,1.6,2.6.7h4.5c0,.1,4.9-.7,4.9-.7l3-1.6h.4c0-.1.1.1.1.1l.2.7v.5c.1,0,.3.6.3.6l.5,1.3,1,1.9.3,1.1.3.5.2.5.2,1.1v.7c.1,0,.7,1.3.7,1.3l1.8,3.3.5.5,1.6,1.1.4.6.6.5,1,.3h1.4l1.8-.7.9-.6,1.3-1.3.6-.4,1.5-.5.5-.3.5-.5.5-.6.8-1.3.5-.6h1.1c0-.1,1.6,0,1.6,0l6.3,1.9,1,.8,1.6.8h-.2ZM128.25,357.25l-.2,1.7-1.7.5-4.8-.4-3.2-1-1.1-.8.2-1.4-.5-1.5-.6-1.5-.4-1.3.5-.5.3-.6h.4l.5.5.8.2,2.8,1.5,1.5,1.2.2.2,2.1,2.2.8.4h1.8c0-.1.6.6.6.6h0ZM5.45,250.55v.3l.3.2h.4c0-.1,0,.6,0,.6l-3.2,1.7-1.1.2v-.6h.3c0-.1.4,0,.4,0h.2l-.4-1h-.6c0-.1-1.5.3-1.5.3v-.6l2.5-1.5,1.4-.4,1.2.6v.2h.1Z"/>
      <path id="FRNOR" class="cls-1" d="M402.75,99.85l8.9,6.3,10.2,10.8.9,1.3.9,3.8.6,1.4,1.3,2.1.5,1.4.2.7v1c.1,0-.4.7-.4.7l-1.1.6-.6.7-2.1,3.4-.4,1.2v.8c.1,0,.7.1.7.1l.6-.2.7-.3h.6c0-.1.6-.1.6-.1l.3.8-.3.9-.7,1.1-.7.6-1.2.7-.4.6v.5c.1,0,.5.5.5.5l.2.7v1.8l.2,2.9.3,1,.3,1.2.2,3.2.2,1.1.5.6h.7c0-.1.6-.4.6-.4l.6-.2h.6c0,.1.5,1,.5,1v.9c-.1,0-.5,1.1-.5,1.1l-.5.5h-.4c0,.1-.2.2-.2.2v.2c-.1,0-.3.4-.3.4l-.5,1.3-.6,1.4-.2,1.2v1.2l.2,2.7,1.8,6.8,1.7,4.1.4,1.6h-.1c0,.1-.1.2-.1.2l-.3.2h-.5c0,.1-.4,0-.4,0h-.2c0-.1-.1-.3-.1-.3l-.8-1-.5-.6-.6-.3h-.6c0,.1-.7.5-.7.5l-.8,1.3v.8c.1,0,.4,1.2.4,1.2l-1.8,3.8-3,10.2-2.4,1.3-7.9,1.9-.6.6v.6l.6,1.4v.6c.1,0,.1.6.1.6v.3l-.2.8v.4c-.1,0,0,.6,0,.6l.3.5.5.2h.6c0,.1.5.2.5.2l.3.3v1.5c-.1,0,0,.6,0,.6l.3,1.1-2.5,1.6-.3.5v.7c-.1,0,.4,2,.4,2v.8l-.2.9-.4.6-.5.5-1.5.7-1,.7-1.4,1.2-.7,1-.4.9-.2.9-.5,1.3-.6.7-.7.5-1.4.6-2.6,1.6h-.3c0,.1-.3.2-.3.2h-.1c0-.1-.6-.5-.6-.5l-.5-.2h-.6c0-.1-2.2.1-2.2.1h-.7l-.6-.2-.6-.2-1.7-1.5-.7-.3h-.3c0,.1-.3.5-.3.5v1.7c-.1,0-.5.3-.5.3l-.4.2h-1.6c0-.1-.7,0-.7,0l-.9.2-.5.5-.4.7-.3.6-.6.8-.6.3h-.7c0,.1-.6,0-.6,0h-.7l-5.9,1.7-.8.5-.6.5-2,2.2.4,4.2.6,1.5,1.1,2,.8.8,1.8,1.1,3.2,3.7.4.7v.6c.1,0,0,.4,0,.4v.5c-.1,0-.2.6-.2.6v.6c-.1,0-.1.7-.1.7l.2.9.2.5.4.6.5.6.7.9v.8c.1,0-.2.6-.2.6l-.6.6-.3.6-.3.6-.4,1.3-.3.5-1.7,1.8-1.4.8-4.2,1.8-.8.3h-1.1c0,.1-.5.2-.5.2l-.3.4-.3.6-.2,1.1.2.7.5.5.4.3.3.7v1.9c-.1,0-.1.8-.1.8v.9c.1,0,.3.2.3.2l1,1.9.4.8.2.9v.8c-.1,0-.6.5-.6.5l-.4.4-.8.5-1.7.4-1.2-.3-1.5-.9-.7-.7-.6-.8-1.3-2.1-1.1-1.4-.7-.4h-.6c0-.1-.3.1-.3.1h-.1c0,.1-.1.2-.1.2h-2.3c0-.1-5.3-1.5-5.3-1.5l-.8-.5-.2-.3v-.9c.1,0,.1-.5.1-.5v-.7c-.1,0-.4-.8-.4-.8l-.5-.2-.6.2-.8.2-1.2-.2-1.7-1-1-.8-.6-.8-.5-1.2-.3-1-.2-1.2v-2.6c-.1,0,.2-2.5.2-2.5v-.7c.1,0,0-.7,0-.7l-.4-.9-.4-.5-.8-.4-2.6-1.2-.9-.2h-.9l-5.4,1.3-1.1.8-.6.3-.8.2-.6.6-.5.6-.4.9-.5.6-.3.4-.3.2-.7.2h-.9c0,.1-.3.3-.3.3l-.4.3-.2.5-.2,1.2-.4.4h-.8l-1.1-.4-.8-.2h-.6l-3.7.5-.3-4.8-.3-.7-.5-.7h-.5c0-.1-.6-.2-.6-.2l-.9-.4-1.1-.9-2.1-2.5-.6-1.3-.2-1,.4-.7.2-1-.3-.7-.5-.5-3.9-1.5-.5.3-.2.5v.7c.1,0,.2.6.2.6v.6c-.1,0-.5.5-.5.5l-.5.5-.8.3h-1.4l-.9.2-.7.4-.6.9-.3.4-.3.4-.9.2-4.1-1.1-3.2-.3h-.7l-.7.2-.5.3-2.1,2.3-.5.5-.7.3-5.3,1.3-.6-.2-.2-.5-.2-.5-.5-.5h-.6c0-.1-3,.7-3,.7l-.5.3v.5c-.1,0-.3.6-.3.6l-.4.5-.7.3h-.6c0-.1-.5-.6-.5-.6l-.4-.5-.5-.3h-.5l-.4.3-.5.2-.5-.3-.3-.5-.8-1.8-.7-1.2-1-.9-2.3.4-.4-.2h-.4l-.2-.2-1.3-.5h-.6c0,.1-.5.4-.5.4h-.2c0,.1-.3.3-.3.3l-2,.6h-2.1l-3.1-.5-1.6-.8-1-.8-6.3-1.9h-1.6c0-.1-1.1,0-1.1,0l-.5.6-.8,1.3-.5.6-.5.5-.5.3-1.5.5-.6.4-1.3,1.3-.9.6-1.8.7h-1.4l-1-.3-.6-.5-.4-.6-1.6-1.1-.5-.5-1.8-3.3-.6-1.3v-.7c-.1,0-.3-1.1-.3-1.1l-.2-.5-.3-.5-.3-1.1-1-1.9-.5-1.3-.2-.6v-.5c-.1,0-.3-.7-.3-.7v-.2c-.1,0,.5-.2.5-.2l4.9.7,6.6-1.5,2.3.8-1-1.6-1.3-.7-2.4-.2v.2l-.3.4h-.4c0,.1-.1-.3-.1-.3v-.6c-.1,0-.3-.6-.3-.6l-.3-.3-2.2-.7-.7-.5-.4-.5-.5-2.2-2.3-2.1-.5-2.2v-2.6l-.3-2.2-.7-1.5-1.5-.4v-.7l.8-.4.7-.8.4-1.1.5-4.5.4-1,.5.8.4-1.1v-.8l-.3-.5-.7-.2-.3-.6.7-5.4.4-1.4.8-.5,1.5.7v-.6l-1.2-.5h-1.3l-1.2.6-.5,1.5-.2.4-.4-.6-.5-.9-.2-.8v-2.3c.1,0,.2-1,.2-1l.3-.9-.9-.2-.3-.7v-1.1c.1,0,.4-1.2.4-1.2l.4-1.2.4-.6,1.2-.8-.7-.6h-.2c0,.1-.3.6-.3.6l-.5-1.5-.4-1.8-.3-1.9v-1.7c-.1,0,.4-.9.4-.9h1.1c0-.1,2.2.6,2.2.6v-.6l-1.3-.4-1.6-.8h-1.3l-.5,1.8-1-1.2-1-3.5-.9-1.1.4-.4h.2c0-.1.2-.3.2-.3l-1.7-1.4-.8-1-.5-1.5h1.3v-.6l-.8-2h-.5l-.5,1.7-1.1-.8-1.4-1.5-1.2-.7.2-.7v-.3c.1,0,.3-.3.3-.3l-.9.2-.8.4h-.7l-.6-.6-.2-1.3.2-3.2v-1.4l-.2-.6-.3-.6-.9-1.7v-.4c-.1,0-.1-.5-.1-.5l-.2-.8-.6-1-1.6-2-.4-.5.4-1.4,1.8-1.6.4-.9.2-3v-1.6l-.4-1.4-.5-1-.4-.9-.5-.7-2-.4-2.7-1.2.5-2.2-.2-1.4.3-.8,1.7-.2.5.2,1.3.9.7.2,1.7-.2.6.2.3.4.3,1.2.3.4h.2c0,.1.7,0,.7,0h.3l1.4.5,4.1.6,4.6,1.6h1c0-.1,0,.2,0,.2v.4l.2.5.4.2.6-.2.9-.9.6-.3.7.2,1.3.5h.8l1-.5,1-.9,1.6-2.2.9-.7,2.8-.9h1.2c0-.1,7.4,1.3,7.4,1.3l.5.3.2.6.3,1.6,1.4,2.9.3,1.7-1.6,1.1-.3.9v.9c-.1,0-.4.4-.4.4h-1.3l-.6.2-.4.5-.3,2.3.8,1.9,1.1,1.6.9,2.7,4.7,5.9.6,1.5.2,2.1v1c-.1,0-.4.8-.4.8l-.3.4v.3c-.1,0,.1,1,.1,1h.5c0-.1.7-.5.7-.5h.7c0-.1.6.5.6.5l.5.6.7.4h.2c0-.1,1-.3,1-.3v-.7l-.7-.9.5-1.3,1-1.2,1.1-.5,8.2.5,7.3,2.8,10.6.6,2.6.8,1.6.2,2.2-1.3,1.5.4,2.7,1.2h4.2l1.1.4,1.9,1.3,3.1.7,5.8,3.5,1.5-1.4,10-2.4,2.8-1.4,1.7-1.4,1.4-.4.6-.5,1.5-2.3,4.1-3,7.7-1.8h.5c0-.1,7.2-1.7,7.2-1.7l2.8-1.5,1.2-1,1.1-1.5-4.4,2.8-5.1.7-5.2-.7-4.4-1.5h-2.3c0-.1-1.5-.5-1.5-.5l-1.2-.8-.5-.9-.2-.6-.9-.6-.2-.8v-1c.1,0,.3-.7.3-.7l3.1-5.9,2.5-8.4.9-1.1,3.1-2.5h.7l.6-.6,8.1-3.8.7-.9,7.7-4.6,2.1-.7,2.5-1.6,4.8-1.8h5.3l25.5-8.2,1.5-1.2,1.5-.5,2.5-2.8,6.9-5.6h0v-.1Z"/>
      <path id="FRNAQ" class="cls-1" d="M248.55,448.55l.3-.5,1.1-1.6.4-.5.6-.2,3.8-1h1.3c0-.1.6-.3.6-.3l1.1-.5h.5c0,.1.5.8.5.8v.6c-.1,0-.4.6-.4.6l-.5.5-.3.5.2.4.7.4h1.1c0-.1.6-.2.6-.2l.7-.2,2-.4.4-.2.9-.3h1l1.6.3,4.2,2.7.8-.2.9-.6.5-.3,1.6-.9.6-.2h2.3l.4-.3,1.9-2.1.5-.3h1.6c0,.1.3.1.3.1l.5-.2.4-.5.2-.7-.2-.7-.7-.8-2.1-1.7h-.4c0-.1-.4.2-.4.2h-.4l-.4-.4-.3-1.3v-.9c.1,0,.6-1.4.6-1.4v-.6c.1,0,0-.6,0-.6l-1-4.8.2-.9.4-.6.5-.4.3-.5v-.5c.1,0,.1-.9.1-.9l-.5-2.6v-1.8c-.1,0-.3-.7-.3-.7l-.4-.7-.7-1-.4-.9v-.7c-.1,0-.1-.7-.1-.7v-.6l-.2-.7-.2-.9-1.7-3.5-1.7-2.7-.5-1.5v-1c-.1,0,.5-1.1.5-1.1l.2-.6v-.4c.1,0-.1-.5-.1-.5l-.6-.8-1.3-1.2-3.6-2.3-.5-.7-.6-.9-.4-1.5v-1.9c-.1,0-.3-.8-.3-.8l-.8-1.1-1.7-1-.6-.9-.8-1.7-.8-1-2.3-1.6.2-.6v-.6c.1,0,.5-.3.5-.3l.9.2.7.2,2.4,1.6.6.3h.6c0,.1.8.1.8.1l3.6-.6,1.7.5,3.5.3,3.9-.4,1.2-.5h.3c0-.1,1-1.2,1-1.2l2.7-1.3.3-.5v-.5c-.1,0-.8-1.1-.8-1.1v-.6c-.1,0,.1-.5.1-.5l.5-.6.6-.3,1.2-.5h1.4c0,.1,1.4.9,1.4.9l.8-.2,3.5-1,1.7-.8,6.6-.8h3.5c0,.1,1.3-.3,1.3-.3h.6l.7.2.7.6.3.8v.7c.1,0,.4.7.4.7l.3.4,1.5.5.6-1.1.2-.5.3-.5.6-.5,1.7-.6.7-.4.5-.8v-.7c.1,0,.2-.7.2-.7l.3-.6,2-2.6,1.1-.4,3.3.6.6,1.2.4.6.2.6.3.5.5.3h.8c0-.1,1-.8,1-.8h.4l.3.6v1.1c-.1,0,0,.5,0,.5l.5.4h.8l1.4-.5.5.2.3.7v1.4c-.1,0-.3.6-.3.6v1.2l.5.4h.9l.8-.2,1.4-.6h.5l.4.3.4,1,.4.4h1.3c0,.1.5.2.5.2l.3.4v1.7l-.4,1.8v1.8c-.1,0-.1,1.3-.1,1.3v.7c.1,0,.3.6.3.6l.5.7.7.5,1.1.2,2.7-.3,2.8.6.6-.3.5-.3.3-.5.5-.2,1.2-.3,4.9-.3h.6c0-.1.5-.4.5-.4l.2-.3v-.6c-.1,0-.2-.3-.2-.3v-.3c-.1,0-.3-.3-.3-.3l-.2-.2v-.3c-.1,0-.2-.3-.2-.3v-1.3h0c0-.1.2-.3.2-.3l.7.3,3.4,2.2,1.3.5.7.5.6.7.7,1.4,1.3,3.8,7.3,11,2.6,2.1.4.5.9,1,.5.8.7,1.7.2,1.1v.8l-.2.6-.2.6-.2.6v3.6c.1,0,.5,1.4.5,1.4l.5.8.8.9,1.4,1.3,1.7,1,1.3.4.4.2.3.3.2,1.4.3.6.7.3h3.9c0,.1.6.2.6.2l.6.3.5.4.5.6.3.5.3.6.2.5v.2l-.5,2.2v.8l.7,1,.6.5,1.2.6.8,1.2-1.1,3.7,1,.8h.8c0,.1.9.8.9.8h.7c0,.1.9.1.9.1l2.7-.3.9-.3.4-.5.3-.5.3-.6.8-.4h.7c0,.1.5.5.5.5l.4.6.3.6.3.5,2.8,1.9,1.9-1.2,4.1-4.2.8-.3.7.2.7.3.9.2,1.6-.3.6.3.3.4v.6c-.1,0,.1.6.1.6l.5.5,1,.2.8-.2.6-.4.6-.6.7-.6h.7c0-.1,2.6.5,2.6.5l.7-.2.5-.5.3-.5.2-.5v-1.2c-.1,0-.1-.6-.1-.6v-.7c.1,0,.7-.7.7-.7h.5c0-.1.6-.1.6-.1l.5.4,1.3,1.8.6.5h.8c0,.1.6-.2.6-.2l1.2-1,.6-.2h.7c0-.1,5.5.1,5.5.1l.8.2,1.2.6h.5c0,.1,3.5.1,3.5.1l2.1.9,2.3-.5,1-.2,6.1.3,2.1,3.1,1.7,1.7.4.9v.9c.1,0,.6,1.6.6,1.6l.5.6.6.3,1.2.4,1.8.4.5.4.3.5.3,1,.2.6.4.6h.4c0,.1.6-.5.6-.5l.5-.2.9.3.6.7,2.5,4.1.4.9.4,1.9.3.8.4.9,1.2,2.1.6,1.5-.4,4v.8l.2,1,.3.7,1,2,.6,1.2.2.8v.7l-.3.9v2.5l-.2.7-.9,1-.5.6-.3.7-.4.9-.5,1.4-.4.8-.5.6-.5.4-.3.4-.9,1.3-.3.3h-.5l-1.2-.1-.6.2-.6.4-.7,1-.7.5-1.2.8-.7.8-.2.6.2.7,1.3,1.8.4.6.2.6.2,1.1.2.6.4.4.5.2h.4l.6.2h0l.4.6.5.4.3.4,1.6,2,.6,1.4v3.4l-.2.9v.5l-.2.3-.3.3-.3.4-1.3.5-.4.3-.4.5-.6,2.9v.8l.4.7,1,1.1.4.9v3.9l.2.9.2.4,1,.7-1.2,5.4-.7,1.8-.4.5-.3.2h-.4l-1.8-.3-1.5-.6-.8-.8-.5-.3h-.3l-.5-.2h-.5l-1.1.3-.3.4v.3c-.1,0,0,.2,0,.2l.2.2.2.2.2.2.2.2v.3c.1,0,.2.3.2.3v1.4c-.1,0-.9,1.4-.9,1.4l-.4,1.1-.3.4-.3.2-.5.2-2,3.3-.5.4-1.2.8-1.2.2-.3.3v.3c-.1,0-.5,1.8-.5,1.8l-.3.5-2.4,1.9v.6c-.1,0-.2.6-.2.6v.7c.1,0,.3.7.3.7l.3.6.4.6.2.8-.2,1-1.4,2.8-.3.9-.3.8-.4,1.2-.5.7-.5.6-2.4,1.8-.4.7v.7l.2.5,1.2,2.3.2.5v.3c.1,0,.1.2.1.2v.2l-.2.4-.4.4-.5.2-2.2.3-1.4.6h-3.3l-1.3.3h-.3l-1.6,1h-.8l-.3-.5-.6-.3h-1.1l-3.5,2.1-3.2,1.1h-1.3l-.8-.2-.4-.3-.3-.4-.6-.4-.7-.5-1.2-.6-.5-.5-.3-.5v-.6c-.1,0-.5-.5-.5-.5l-2.1-1.9-2-1.4-1-.6-1.8-.6h-.8l-1.4.7-.4-.2v-.4c-.1,0-.3-.5-.3-.5l-.3-.4h-.4l-.5.3-.6.7-.2.2-.9.2-.6.6-.2.2-1,.4-1.8,1.4-.3,1.4,1.4,4.4v1c-.1,0-.4.8-.4.8l-.4.6v.6l.2.8v.6l-.3.6-.4.5-1.7,1.5-.5.6-.5.8-.7,1.5-.5.8-.5.3h-1.2l-.6.5-.8,1.1-.2.7v.7c.1,0,.5.4.5.4l.3.6v.9c-.1,0-.5.9-.5.9l-.9,1.3-.8.7-.7.5-1.1.4-.5.4-.9.9-.5.3-.6.2h-1.1l-.6.4-1,.8-2.7,5-.7,1-1.5,1.6-1.1,1-1,.8-3,1.5-.6.7-.3.6v.5c.1,0,.3.3.3.3l.4.5.4.5.2.5v.5c.1,0,0,1.2,0,1.2v.6c.1,0,.3.4.3.4l.2.4.2.4.2,1.1.2.6.5.5,1,.8.4.8v1.6c-.1,0-.2,2.1-.2,2.1h0l-.8,1-5.1.4-1.2-.2-.8-.4-.4-.5-.6-.3h-.6l-.4.5-.2.5v2.3c-.1,0-.2.6-.2.6l-.6,1.3v.6c-.1,0,.4.9.4.9l.2.5.4.3,1.6.5.5.3.4.4.2.5v.6c-.1,0-.3.5-.3.5l-2.3,5.1-.7.7-1.4,1v.5l.2.3.5.2.5.5.2.5v.7l-.3.5-.5.3h-1.1l-.6-.2-1-.5h-1.2l-.7.3-.2.3-.2.5v.5c-.1,0-.4.7-.4.7l-.4.4-1.4.6-.4.4-.4.6-.4,1.3v.5c-.1,0-.3.9-.3.9l-3.8,2.3-1.3.3-.4-.3-1.8-1.8-.6-.5-1.3-.5-1,.2-4.2,1.6h-1.1l-.9-.4h-.6l-.6.4-.6.6-4.5,2.2-1.2.2-.9.5-1.6,1.1-.7.2h-1l-1.1-.7-2.9-1.2h-.6l-.6.5-.3.4-.9,1.8-.4.5-.5.6-.7.5h-.6l-.4-.1-.5-.8-.6-.2h-.5l-1.6.7-.3.5-.5,1,.3,2.2v.7c-.1,0-.5.8-.5.8l-.6.4h-.5l-2.2-.1h-.5l-.5-.3-.3-.2-.3-.3-.2-.4v-1c.1,0,.6-.7.6-.7l.2-.4v-.9c-.1,0-.4-.4-.4-.4l-.4-.4-.9-.3-.7.2-.6.3-1.5,1.1-1.2,1.5-.7.6h-2l-2.2-.3-.8.3-2.1,1.7-.5.7v.6c-.1,0,.3.6.3.6l.9,1,.3.5.4,1.1.2.5.3.6v.6l-.5,1.4-.7,1.1-.2.8v.7c-.1,0-.1,1.4-.1,1.4v.7c-.1,0-.1.6-.1.6l.3.5.4.5.2.5v.6c-.1,0-1.3,2.9-1.3,2.9l-.4.5-.3.2h-1l-.6.3v.4c-.1,0,.1.6.1.6l.3.6v.7c.1,0-.3,1-.3,1l-.8.9-.2.7v.5l.9.6.2.5.2,1,.2.4.4.6,2.1-.2,5.8,1.3,1.2.8.6,1.7.5.5.7.4.4.4.4.6,1.5,3.7.3,1v.7c.1,0-.1.5-.1.5l-.4.2h-.5l-.5-.2-.4.3-.2.8.2,1.7.4.5h.5l.5-.4.3-.5.4-.4.5-.3h.6l.3.4v.6c.1,0-.1,3.2-.1,3.2l.2,1.1.8,1.9v.8c.1,0-.2.6-.2.6l-.5.3-1.1.3-.5.3-.4.5-.4.5-.3.7-.2.9v1.2l.5,1.6v.4c.1,0,.1.5.1.5l-.2.5-.3.5-.5.6-1,1-.5.5-.2.6-.4,2-.2.7-.4.6-.4.2-.8-.3-.3.2-.5.5-.8,2.1-.4.7-.6.6-.5.3-1.3.6-.4.5-.5.8v1.3c-.1,0,0,1,0,1l.4,1.6-.3.6-.5.4h-.7l-1.8.2h-.5l-.4.5-.7.9-1.1,1.1-.4.7v.6c-.1,0,0,.6,0,.6l.3,1.2v2.1l-.4.8-.4.7-.5.6-.5.7-.2.6v.6c-.1,0-.1.5-.1.5v1.2c.1,0,.5,2.1.5,2.1l.3,1.5h-.2l-.9-1-.4.9-.4.6-.5.2-.5-.6-3,2.4-1.5.9h-1.9l-3.3-1.4h-1.6l-.1,1.9-.5.2-1.1.7h-.5l-.6-.3v-1c.1,0-.2-.5-.2-.5h-1.3l-.4-.2v-.7c.1,0,0-.4,0-.4l-2.4-3.2-1.1-.9-2.1-1.3h-1.8l-.7-.6-.3-.8v-.5c.1,0,.3-.4.3-.4v-.5l-.3-.7-.9-2.4-1.6-.5-4.8.8-4.9-.4-2.4-.7-2.1-1.7-.8-.9-1-.3-2.2-.2-.4-.4-1-.7-.6-.2-2.3.2-2-1.6-2.1-1.2-3.6-.6-1.2-.8-1-1.2-.3-1.1.5-1.1,1.3-1.1-1.4-.4-1.4.5-1.1,1.2-.4,1.7-.2,2.3-.5,1.1-1,.3h-1.7l-1.5-.5-1.4-.8-1.1-1.3-.8-1.8.5-.7,2.5-2.8.8-1,1-2.7.6-3.4-.2-3.1-1.8-1.8h-.7l-.7.2h-.7l-2.6-1.2-1.9-.6h-1.2l-.9.5-.5,1.4-.4.8-.7.4h-1.4l-.8-.4-.3-.4-.4-1.4v-.8c-.1,0,.1-.5.1-.5v-.4l-.7-.4-1.1-.6h-.6l-1.2.5-1.4.2-.7.3h-.7l-.1-.2-.2-.3-.2-1.7-.8-1.1-1.7-.8v-1.1c-.1,0,0-1.8,0-1.8v-.9h.3l1,.7.5-.6,1.1-.5,5.5-.9,1.4-2.1,1.4-.7,1.1-.9.6-.7,1.3-2.6.3-1,.5-.7,2.5-3.2.4-.9,1.9-2.6.4-2.7,1.5-4.8,2.5-14.1,1.5-4.9,2.2-11.1,3.9-24.4,1.7-12.2.2-2.2.3-3.2-.2-1.2-.5-2.5v-.7c.1,0,1.7-2.4,1.7-2.4l.2-.6.2-1,1.1-4,1.2-1.5h1.6l3.8.8,2.1-.3,1.3-.9v-1.3l-1.5-1.6h.8l-.6-1.3-4.6-4.4-.7-.3h-.3l-.3-.4-.3-.2h-.4l-.2.3-.2.4v.3c-.1,0-.2.2-.2.2l-.4.8-2.8,4.2-.7,3.9-.5,2.1-.4,1,3.7-43.1,2.6-13.9,1.1-18.6.4-1.3,2.1-4.3.9-1.4,1-.4.6.4.2.4v1.6c-.1,0-.3.3-.3.3v.5c-.1,0-.1.5-.1.5l.2.4.7,1.1.5.7,4.1,3.2,2.7,1.5.9.3,7.5,8.4,1.7,2.5.8,2.7v1.8c.1,0,.9,3.2.9,3.2l1.2,8.2.2,1,2.1,5.1,2.1,2.7,2.4,2.3,2,1.2.5.6.6,1.1v2.2c-.1,0-.1,1.9-.1,1.9l.3,1.8.5,1.4.9.6-.3-1.2-.2-2.4-.4-1.1.6-2.4-.7-1.9-1.4-1.4-1.4-.9h1.9l1.6.5,1.4.7,1.4,1.1-1.6-2.7-2.4-1.2-2.7-.9-2.2-1.7-1.1-2.3-.8-2.8-2.4-16.8-.8-3.4-2-5.6-1.3-2.5-1.4-2.2-2.8-3.3-8.8-6.4-.2-.3-.3-1.7-.4-.4-2-.7-3.3-3.4-1.9-.7-1.1-.3-1.1-.6-.8-.9-.8-1-1.1-.9-2.2.5-1.1-.4,1-6.2v-1.2l4.1-1.2h1.2l4,4.7.7.5.7.7,4.4,2-1.4-1.6-5.6-4.5-1.6-1.9-.3-.8v-1c-.1,0-.4-1.4-.4-1.4l-.4-1.3-.5-.9.7-.4.4-.5.3-.5.3-.4.7-.6,1-.6h1l.4-.2.3-1v-1c-.1,0-.5-.9-.5-.9l-.4-.8-.4-.4.4-.3.6-.7.3-.2-1-.7-.7-1.2-.9-3,1.3,1h1.1l.8-.7.7-1.5v-.6l-.3-.4-.4-.4-.4-.3-1.1-.5-.3-.7v-.9l-.5-1.2v-.8c.1,0,0-.4,0-.4h-.3c0-.1-.8-.4-.8-.4h-.2c0-.1-.3-.5-.3-.5l-.4-.3v-.4l.7-.8-1.4-1.1h-.5c0-.1-.2-.2-.2-.2v-.9c.1,0,0-.3,0-.3h-1.9c0-.1-.6-.1-.6-.1h-.5c0-.1-.6-.7-.6-.7v-.8c-.1,0,.3-.9.3-.9l.6-.7.6-.4-.3-1.7.7-1.2,4.2-2.7.5-1.1v-.7l-.3-.8-.2-1.3-.5-.7h.2ZM313.65,704.65l-.2-.3-.3-.3-.8-.2h-.7l-.5.7-.3.8-.2,1.7.2.9.4.6.6.3h.8l.2-.3.2-.2.2-.3.5-1.2v-.7c.1,0,.1-.6.1-.6v-.5l-.2-.4h0ZM310.45,715.65h.7l.6-.2,1.1-1.9-.6-1.9-1.5-.9-1.4,1.7v1.2c-.1,0-.1.6-.1.6l.2.5.5.7.5.2h0ZM244.55,489.15l-.7,2.3-.9,1.4-1.1-.5-.9-3.1-.5-1.2-.6-1.2-3.7-4.1-1.3-1-1.3-1.6-1-1.7.2-.8.2-.9-.7-2.1-1.4-3.1,1.9.3,2.1,1.1,2,1.6,1.4,1.6.7.4.8-.3h.8l.9.8.3,1.1v1c-.1,0-.1.9-.1.9l.7.7v.6l-.3.8.6.6,1.8,1.1.5.8v.7c.1,0-.4,3.8-.4,3.8h0ZM224.75,457.75l-2.5-2.8-.7-.5v-.6l3.6-.9,1.1.2.4.4.3.5v.5l-.3.5-1.5-.6h-.7l1.1,1.8h1.7l1.7-.8,1.5-.4v.6h-.8v.7l1,.5,6.2,1,1.5,1,1.1,1.3.7,1.7h-.5l-.5.2-.6.3-.3-.3h-.3c0-.1-2.8-.6-2.8-.6l-6-3.9-3.5.6-.9-.4h0Z"/>
      <path id="FRCVL" class="cls-1" d="M505.25,405.35h-1.7c0,.1-1.6-.2-1.6-.2l-2.8.9-3.9,2.6-.4.4-.4.9-.4.6-.6.7h-.6c0-.1-.7-.3-.7-.3h-.8c0-.1-.6.2-.6.2l-.9,1.1h-.5c0,.1-2.1-.7-2.1-.7l-.3-.5-.2-.4-.5-.2-.4.3-1,1.3-1.8,1.6-1.1.8h-1.5c0,.1-.4.4-.4.4v.5l.2,1.2-.4.5h-.6c0,.1-1.4,0-1.4,0l-.4.2-.2.3v.5l.2.5.7,1v.8l-.4.9v1.2l.4.6.9,1.2.4.6.2.5v.3l.2.4v.9l-.3.2-5.2,1.5-2.9.2-1.8.5h-1.2c0-.1-.9,0-.9,0l-1.3.3-3.7,1.9-.9,1.5-.6.6-.5.4h-.5c0,.1-.5.4-.5.4l-.2.4-.5,1.1-1.6,2.8-6.1-.3-1,.2-2.3.5-2.1-.9h-4c0-.1-1.2-.7-1.2-.7l-.8-.2-5.5-.2h-.7c0,.1-.6.3-.6.3l-1.2,1-.6.3h-.8c0-.1-.6-.6-.6-.6l-1.3-1.8-.5-.4h-1.1c0,.1-.6.8-.6.8v.7c-.1,0-.1.6-.1.6v.6c.1,0,.1.6.1.6l-.2.5-.3.5-.5.5-.7.2-2.6-.6h-.7c0,.1-.7.7-.7.7l-.6.6-.6.4-.8.2-1-.2-.5-.5-.2-.6v-.6c.1,0-.2-.4-.2-.4l-.6-.3-1.6.3-.9-.2-.7-.3-.7-.2-.8.3-4.1,4.2-1.9,1.2-2.8-1.9-.3-.5-.3-.6-.4-.6-.5-.4h-.7c0-.1-.8.3-.8.3l-.3.6-.3.5-.4.5-.9.3-2.7.3h-1.6c0-.1-.9-.8-.9-.8h-.8c0-.1-1-.9-1-.9l1.1-3.7-.8-1.2-1.2-.6-.6-.5-.7-1v-.8l.5-2.2v-.2l-.2-.5-.3-.6-.3-.5-.5-.6-.5-.4-.6-.3h-.6c0-.1-3.9-.2-3.9-.2l-.7-.3-.3-.6-.2-1.4-.3-.3-.4-.2-1.3-.4-1.7-1-1.4-1.3-.8-.9-.5-.8-.4-1.4v-1.2c-.1,0-.1-1.8-.1-1.8v-.6l.2-.6.2-.6.2-.6v-.8l-.2-1.1-.7-1.7-.5-.8-.9-1-.4-.5-2.6-2.1-7.3-11-1.3-3.8-.7-1.4-.6-.7-.7-.5-1.3-.5-3.4-2.2-.7-.3-.2.2h0v1.7c.1,0,.2.3.2.3l.2.2.2.3v.3c.1,0,.2.3.2.3v.3c.1,0,.1.3.1.3l-.2.3-.5.3h-.6c0,.1-4.9.4-4.9.4l-1.2.3-.5.2-.3.5-.5.3-.6.3-2.8-.6-2.7.3-1.1-.2-.7-.5-.5-.7-.2-.6v-.7c-.1,0-.1-1.3-.1-1.3v-1.8c.1,0,.5-1.8.5-1.8v-1.7l-.3-.4h-.5c0-.1-1.3-.2-1.3-.2l-.4-.4-.4-1-.4-.3h-.5l-1.4.6-.8.2h-.9l-.5-.4v-1.2l.2-.6v-.7c.1,0,.1-.7.1-.7l-.3-.7-.5-.2-1.4.5h-.8l-.5-.4v-.5c-.1,0,0-.5,0-.5v-.6l-.3-.6h-.4l-1,.7h-.8c0,.1-.5-.2-.5-.2l-.3-.5-.2-.6-.4-.6-.6-1.2.9-6.9,1.1-5.2.4-1.1.3-.7.7-1.2,1.7-2.4,1.7-2.9v-.8c.1,0-.3-1.7-.3-1.7v-.9c.1,0,.8-2.3.8-2.3l.3-1.2,2-4.5v-1.4c-.1,0-.5-1.6-.5-1.6v-1.2l.3-1.1,1.4-3.9,2.7.7,1.8.3,3.5,1.1.9-.2.2-.3v-.6c-.1,0-.3-1.2-.3-1.2v-.5c-.1,0-.2-.7-.2-.7l.3-.6.7-.6h.7l1.4.9.8.2.5-.3v-.4c.1,0,.6-.6.6-.6l1-.6,2.5-.6,3.3-1.7.8-.2h.9c0-.1.6-.4.6-.4l.2-.4v-.5c.1,0-.1-.6-.1-.6h0c0-.1-.5-1.3-.5-1.3l.7-1.9,1.4-1.5,1.3-.9.6-.2h.2l1.3-.6,1.9-1.2.8-.8.6-.8,1.6-5.1v-.6c.1,0,.1-.7.1-.7v-2.1c-.1,0,0-.7,0-.7v-.9c.1,0,.5-.9.5-.9l.7-.7.9-.6,1.4-1.4.5-.9.3-.8-.4-1.3v-.9c-.1,0,0-1.1,0-1.1l.5-2v-.9c.1,0-.2-.5-.2-.5h-1.1c0-.1-.4-.2-.4-.2l-.3-.4-.2-.6-.4-.6-.2-.7v-.8l.4-.5h.5c0-.1,1.3-.1,1.3-.1l.6-.2.6-.5v-.4l-.4-.5-.4-.3-.4-.4v-.8c-.1,0,.2-.5.2-.5l.7-.3,2.2-1.6,1.2-.5.6-.7v-.5l-.4-.5-.5-.3-.6-.2h-1.9c0-.1-.6-.3-.6-.3l-3.1-2.3.8-.5.4-.4.5-.5v-.8c.1,0-.1-.9-.1-.9l-.4-.8-1-1.9-.2-.2v-.3c-.1,0-.1-.6-.1-.6v-2c.1,0,.1-.7.1-.7l-.3-.7-.4-.3-.5-.5-.2-.7.2-1.1.3-.6.3-.4h.5c0-.1,1.1-.2,1.1-.2l.8-.3,4.2-1.8,1.4-.8,1.7-1.8.3-.5.4-1.3.3-.6.3-.6.6-.6.3-.6v-.8c-.1,0-.8-.9-.8-.9l-.5-.6-.4-.6-.2-.5-.2-.9v-1.3c.1,0,.2-.6.2-.6v-.2c.1,0,.1-.3.1-.3v-.4c.1,0,0-.6,0-.6l-.4-.7-3.2-3.7-1.8-1.1-.8-.8-1.1-2-.6-1.5-.4-4.2,2-2.2.6-.5.8-.5,5.9-1.7h1.3c0,.1.7,0,.7,0l.6-.3.6-.8.3-.6.4-.7.5-.5.9-.2h.7c0-.1,1.3,0,1.3,0h.3l.4-.2.4-.3v-.5c.1,0,.1-1.2.1-1.2l.3-.4h.3c0-.1.7.2.7.2l1.7,1.5.6.2.6.2h.7l2.2-.2h.6c0,.1.5.3.5.3l.6.4h.1c0,.1.3,0,.3,0h.3c0-.1,2.6-1.7,2.6-1.7l1.4-.6.7-.5.6-.7.5-1.3.2-.9.4-.9.7-1,1.4-1.2,1-.7,1.5-.7.5-.5.4-.6.2-.9v-.8l-.5-2v-.7c.1,0,.4-.5.4-.5l2.5-1.6,3.4,6.7.9,1.3.5.9.3,1.3v1.7c-.1,0-.4,1.4-.4,1.4v.5c-.1,0-.2.5-.2.5v.4c.1,0,.2,1,.2,1v.4c.1,0,.5.6.5.6l1.8,1.1v1.2c-.1,0-.4.7-.4.7l-1,1.2-.3.6-.2.7v.5c.1,0,.2.5.2.5l1,.5.5.6.5,1.6.6,1,.9,1,3.1,2.2.8.7.3.8.2,1.4.2.6.5.6,1.2.7.7.5.6,1,.2.8.2.7v2.6c-.1,0,0,.6,0,.6v.2l.6,1.3.7.8,1,.8,3,1.7,1.6.6,2.2-.5.5.4v2.2l.2.7.6.8.6.5.5.6.5,1,.3,2.2.3,1.1.6,1,1.1.7.2.3v.5c.1,0-.8,1.3-.8,1.3l-.5.6-.4.4v1c.1,0,1.1.7,1.1.7l9-2,2.1-1,.5-.6.4-.5.5-1.2.4-.4h.6c0-.1.9.6.9.6l.6.5.3.7v.6c.1,0,.5.4.5.4l.7.3,1.6-.5.7-.5.4-.7.4-.3h.6c0-.1,2.8,1.5,2.8,1.5l1.9-.3h.5c0-.1.9,1.2.9,1.2l.4.8.8,3.5.2.3h0c0,.1,3.5,2.5,3.5,2.5l.8.9.5.8v.6l-.2.6-.7,1.1v.5l.4.7.2.5v.5l-.4.4h-.3l-1.6-.3h-.5l-.5.4-.3.5v1.2l.4.5.6.4.9.2h.9l2.2-.6h1c0-.1,8.5.5,8.5.5l.8-.2,1.3-.8.6-.7.4-.6.6-.6,1-.4h1.7c0-.1.7.2.7.2l.2.5-.3.5-.2.6v.6l1,.2h.9c0-.1,6.2-2.3,6.2-2.3h1.9c0,.1,2.3.8,2.3.8l.9.5.4.4.5.5.2.6,1.2,4.5.4.9.6.6,1.9,1.5,1,1.1.2.6.2.7.2,1.6-.4,1.1-1.1,2.9-.6.8-.5.5-1.3.7-.6.6-1,1.2-.5.5-.6.2h-.8l-.3.2v.6l.1,2.4.3.9.6,1v.6l-.2.8-.3.5-.2.4v.5l.1.7v1.3l-.5.9-.6.4-2,.8-2,1.3-.6.2h-1.7c0-.1-1.3.1-1.3.1l-.6.2-.5.3-.4.5h0c0,.1-.2,1-.2,1v1.6l.3.6.6.5h.6l.6.2.6.4,1.7,1.6.7.8.8,1.7.4,1v.8l-.6,1.2v.7l.4.9,1.8,2.4.6,1.4-1.3.5h-2.4l-.6.2-2.6,1.5v.7l1,1.4.5.6.6,1.3.6,1.7.4.7,1,1.4.4.5v1.2l-.5,2.5v.4l-.5.9-.2.6v.3l-.3.5-.7,1.4-.8.9-.5,1.2v.7l.2.5.4.8.3.4.2.3h.3c0,.1.3.3.3.3l.6.3h.3c0,.1.2.3.2.3l1.5,2.1.5.4,1,.8.2.2.3.6.3.8.5,3.2v.4l.6.9.9,2.6.7,2.7v.4l.5,1.6v1.4l-.2,1.4v1.4l.3.7.3.3,1.2,1,.2.2.2.3v.3l.2,1.7v2.3l.3,1v2.4l-.7,2.1-.5,1.6v.9l.2.7v.4l.8,1.4v1.3l-.1.7-.4.9-1.4,2.7-.4.8v.2l-.3,1.9h.1Z"/>
      <path id="FRIDF" class="cls-1" d="M422.85,179.65l.9.9.2.7.2,1,.4.7.8.6.7.2h.7c0,.1,1.9.2,1.9.2l2.9.9,1.8.3,1.1.5,2.2-.6h2.9c0-.1,1.2-.4,1.2-.4l.9-.4,2.7-2,.7-.5.9-.3h.6c0,.1.5.5.5.5l.4.6.8.6,1.6.8h1l1.5.3,3.9,1.8.9.2h.9c0-.1,2.1-1.4,2.1-1.4l1.1-.4,1,.4,10.8,6h.6l1-.5.5.3.4.4.2.5.6.8,1.3,1.1,2.7-1.2,1.5.3,1.1,1.2.7.6h.7c0-.1,1.3-.6,1.3-.6l.5.2.6.6.3.2.6.3h.7l.4-.2.4-.4.3-.5.7-.6h.6c0-.1.6,0,.6,0l3.4,1,4.8-.9,1-.4.6.3.9.7h.5l1-.9.9-.4h.8c0-.1,1,0,1,0l.7-.3,1.4-1,3.8,1.2.5.6.6.8.9,2.2v.9l-.1.9-.2.6-.2.6v.4l.2.8.5.6,8.9,8,.7.2,1-.6h.5c0-.1.4.3.4.3l.3.5.2,1.5v1.1l.2.7.6.9,2.2,1.7,1,.4h.9c0,.1,1.7-.2,1.7-.2v2l-.4.6-.4.5-.6.2h-2.1l-.7.2-.2.4.3.5.8.7v.5l-.3.5-.8.7-.5.7-.2,1v.6l.2.2h0c0,.1.4.2.4.2h.7c0-.1.3-.1.3-.1h0c0,.1.2.4.2.4l.3.7.5.4.5.4.3.5.2.6v.6l.4,1.5v1l-.4,2.2v1.1l.3.7.5.4h.6c0-.1,1.1-.5,1.1-.5h.4l.4.2.5.8,1.3,1.8-2.7,2.4-1.1,1.7-.4,1.7-.5,1.1-.6.6-.8.3h-.7l-1,.3-.3.2v.5l.2.6.6,1.1v.3l-.1.5-1.3,1.1-.3.6v.6l.6,1.4v.8l-.4,1.1-.2,1.1.2.9-1.6,1.7-.9,1.8-.5.2h-.6l-1.2-.5h-.6c0-.1-6.3,1-6.3,1h-.9l-.7-.3-3-.3h-.7c0,.1-.5.4-.5.4l-.4.2-.4.4h-.4c0,.1-3.1,0-3.1,0l-.4.4-.3.3v.7l-.3.9v.5l-.4.5-.3.6v.6l-.2.6v1.2l.3.7.2.6.4.5.2.6v.6l-.4.5-.4.6h0c0,.1-.6,1.3-.6,1.3l-.3.6-.7.8-2,1-.7.5-.4.5-.2.5-.3,1.1-.2,1.2-.2,1.3-6.2,2.2h-.9c0,.1-1-.1-1-.1v-.6l.2-.6.3-.5-.2-.5-.7-.3h-1.7c0,.1-1,.5-1,.5l-.6.6-.4.6-.6.7-1.3.8-.8.2-8.5-.6h-1c0,.1-2.2.7-2.2.7h-.9l-.9-.2-.6-.4-.4-.5v-1.2l.3-.5.5-.4h.5l1.6.3h.3l.3-.4v-.5l-.1-.5-.3-.7v-.5l.7-1.1.2-.6v-.6l-.5-.8-.8-.9-3.5-2.4h0c0-.1-.2-.4-.2-.4l-.8-3.5-.4-.8-.9-1.3h-.5c0,.1-1.9.4-1.9.4l-2.8-1.6h-.6c0,.1-.4.4-.4.4l-.4.7-.7.5-1.6.5-.7-.3-.4-.4v-.6c-.1,0-.4-.7-.4-.7l-.6-.5-.9-.7h-.6c0,.1-.4.5-.4.5l-.5,1.2-.4.5-.5.6-2.1,1-9,2-1-.7v-.4c-.1,0-.1-.6-.1-.6l.4-.4.5-.6.9-1.3v-.5c-.1,0-.3-.3-.3-.3l-1.1-.7-.6-1-.3-1.1-.3-2.2-.5-1-.5-.6-.6-.5-.6-.8-.2-.7v-2.2l-.5-.4-2.2.5-1.6-.6-3-1.7-1-.8-.7-.8-.6-1.3v-.8c-.1,0,0-1.4,0-1.4v-1.2l-.2-.7-.2-.8-.6-1-.7-.5-1.2-.7-.5-.6-.2-.6-.2-1.4-.3-.8-.8-.7-3.1-2.2-.9-1-.6-1-.5-1.6-.5-.6-1-.5v-.5c-.1,0-.2-.5-.2-.5l.2-.7.3-.6,1-1.2.3-.7v-.7c.1,0,.1-.3.1-.3v-.2l-1.8-1.1-.4-.6v-.4c-.1,0-.2-1-.2-1v-.4c-.1,0,0-.5,0-.5v-.5c.1,0,.4-1.4.4-1.4v-.9c.1,0,.1-.8.1-.8l-.3-1.3-.5-.9-.9-1.3-3.4-6.7-.3-1.1v-.6c-.1,0,0-.7,0-.7v-.8l-.3-.3h-.5c0-.1-.6-.2-.6-.2l-.5-.2-.3-.5v-.6c-.1,0,0-.4,0-.4l.2-.8v-1.5c-.1,0-.7-1.4-.7-1.4v-.6l.6-.6,7.9-1.9,2.4-1.3,3-10.2,1.8-3.8h0Z"/>
    </g>
    <g id="points">
      <polygon id="_0" data-name="0" class="cls-1" points="45.65 832.95 45.65 832.95 45.65 832.95 45.65 832.95"/>
      <polygon id="_1" data-name="1" class="cls-1" points="500.25 499.35 500.25 499.35 500.25 499.35 500.25 499.35"/>
    </g>
    <g id="label_points" data-name="label points">
      <polygon id="FRHDF1" class="cls-1" points="488.75 115.15 488.75 115.15 488.75 115.15 488.75 115.15"/>
      <polygon id="FRGES1" class="cls-1" points="652.25 236.75 652.25 236.75 652.25 236.75 652.25 236.75"/>
      <polygon id="FRPAC1" class="cls-1" points="703.35 666.15 703.35 666.15 703.35 666.15 703.35 666.15"/>
      <polygon id="FRARA1" class="cls-1" points="600.75 539.15 600.75 539.15 600.75 539.15 600.75 539.15"/>
      <polygon id="FRBFC1" class="cls-1" points="590.75 375.95 590.75 375.95 590.75 375.95 590.75 375.95"/>
      <polygon id="FROCC1" class="cls-1" points="450.55 688.65 450.55 688.65 450.55 688.65 450.55 688.65"/>
      <polygon id="FRPDL1" class="cls-1" points="293.45 314.15 293.45 314.15 293.45 314.15 293.45 314.15"/>
      <polygon id="FRBRE1" class="cls-1" points="130.65 277.05 130.65 277.05 130.65 277.05 130.65 277.05"/>
      <polygon id="FRNOR1" class="cls-1" points="335.55 205.85 335.55 205.85 335.55 205.85 335.55 205.85"/>
      <polygon id="FRNAQ1" class="cls-1" points="344.35 512.95 344.35 512.95 344.35 512.95 344.35 512.95"/>
      <polygon id="FRCVL1" class="cls-1" points="420.25 347.75 420.25 347.75 420.25 347.75 420.25 347.75"/>
      <polygon id="FRIDF1" class="cls-1" points="466.85 227.15 466.85 227.15 466.85 227.15 466.85 227.15"/>
    </g>
  </g>
</svg>