<?xml version="1.0" encoding="UTF-8"?>
<svg xmlns="http://www.w3.org/2000/svg" version="1.1" xmlns:xlink="http://www.w3.org/1999/xlink" viewBox="0 0 2000 2000">
  <!-- Generator: Adobe Illustrator 29.8.2, SVG Export Plug-In . SVG Version: 2.1.1 Build 3)  -->
  <defs>
    <style>
      .st0 {
        stroke-miterlimit: 10;
      }

      .st0, .st1, .st2, .st3, .st4, .st5, .st6 {
        fill: none;
      }

      .st0, .st1, .st2, .st3, .st6 {
        stroke: #000;
      }

      .st7 {
        opacity: .4;
      }

      .st7, .st8, .st9 {
        display: none;
      }

      .st1 {
        stroke-width: 25px;
      }

      .st1, .st2, .st3, .st4, .st5, .st6 {
        stroke-linecap: round;
        stroke-linejoin: round;
      }

      .st2 {
        stroke-width: 30px;
      }

      .st8 {
        opacity: .6;
      }

      .st3 {
        stroke-width: 10px;
      }

      .st4 {
        stroke-width: 24px;
      }

      .st4, .st5 {
        stroke: #f44336;
      }

      .st5 {
        stroke-dasharray: 76;
      }

      .st5, .st6 {
        stroke-width: 20px;
      }

      .st10 {
        opacity: .2;
      }
    </style>
  </defs>
  <g id="Calque_1" class="st8">
    <g>
      <rect class="st0" x="0" y="0" width="2000" height="2000"/>
      <line class="st0" x1="0" y1="1909.1" x2="2000" y2="1909.1"/>
      <line class="st0" x1="0" y1="1818.2" x2="2000" y2="1818.2"/>
      <line class="st0" x1="0" y1="1727.3" x2="2000" y2="1727.3"/>
      <line class="st0" x1="0" y1="1636.4" x2="2000" y2="1636.4"/>
      <line class="st0" x1="0" y1="1545.5" x2="2000" y2="1545.5"/>
      <line class="st0" x1="0" y1="1454.5" x2="2000" y2="1454.5"/>
      <line class="st0" x1="0" y1="1363.6" x2="2000" y2="1363.6"/>
      <line class="st0" x1="0" y1="1272.7" x2="2000" y2="1272.7"/>
      <line class="st0" x1="0" y1="1181.8" x2="2000" y2="1181.8"/>
      <line class="st0" x1="0" y1="1090.9" x2="2000" y2="1090.9"/>
      <line class="st0" x1="0" y1="1000" x2="2000" y2="1000"/>
      <line class="st0" x1="0" y1="909.1" x2="2000" y2="909.1"/>
      <line class="st0" x1="0" y1="818.2" x2="2000" y2="818.2"/>
      <line class="st0" x1="0" y1="727.3" x2="2000" y2="727.3"/>
      <line class="st0" x1="0" y1="636.4" x2="2000" y2="636.4"/>
      <line class="st0" x1="0" y1="545.5" x2="2000" y2="545.5"/>
      <line class="st0" x1="0" y1="454.5" x2="2000" y2="454.5"/>
      <line class="st0" x1="0" y1="363.6" x2="2000" y2="363.6"/>
      <line class="st0" x1="0" y1="272.7" x2="2000" y2="272.7"/>
      <line class="st0" x1="0" y1="181.8" x2="2000" y2="181.8"/>
      <line class="st0" x1="0" y1="90.9" x2="2000" y2="90.9"/>
      <line class="st0" x1="1909.1" y1="0" x2="1909.1" y2="2000"/>
      <line class="st0" x1="1818.2" y1="0" x2="1818.2" y2="2000"/>
      <line class="st0" x1="1727.3" y1="0" x2="1727.3" y2="2000"/>
      <line class="st0" x1="1636.4" y1="0" x2="1636.4" y2="2000"/>
      <line class="st0" x1="1545.5" y1="0" x2="1545.5" y2="2000"/>
      <line class="st0" x1="1454.5" y1="0" x2="1454.5" y2="2000"/>
      <line class="st0" x1="1363.6" y1="0" x2="1363.6" y2="2000"/>
      <line class="st0" x1="1272.7" y1="0" x2="1272.7" y2="2000"/>
      <line class="st0" x1="1181.8" y1="0" x2="1181.8" y2="2000"/>
      <line class="st0" x1="1090.9" y1="0" x2="1090.9" y2="2000"/>
      <line class="st0" x1="1000" y1="0" x2="1000" y2="2000"/>
      <line class="st0" x1="909.1" y1="0" x2="909.1" y2="2000"/>
      <line class="st0" x1="818.2" y1="0" x2="818.2" y2="2000"/>
      <line class="st0" x1="727.3" y1="0" x2="727.3" y2="2000"/>
      <line class="st0" x1="636.4" y1="0" x2="636.4" y2="2000"/>
      <line class="st0" x1="545.5" y1="0" x2="545.5" y2="2000"/>
      <line class="st0" x1="454.5" y1="0" x2="454.5" y2="2000"/>
      <line class="st0" x1="363.6" y1="0" x2="363.6" y2="2000"/>
      <line class="st0" x1="272.7" y1="0" x2="272.7" y2="2000"/>
      <line class="st0" x1="181.8" y1="0" x2="181.8" y2="2000"/>
      <line class="st0" x1="90.9" y1="0" x2="90.9" y2="2000"/>
    </g>
  </g>
  <g id="Calque_2" class="st8">
    <circle class="st0" cx="1000" cy="1000" r="1000"/>
  </g>
  <g id="Calque_3" class="st9">
    <image class="st10" width="626" height="459" transform="translate(2605.6 246) rotate(128.8) scale(3.8)" xlink:href="illustration2-1.png"/>
  </g>
  <g id="Calque_4" class="st9">
    <path class="st6" d="M454.5,1454.5c66.7,19,122.8,20.2,159.3,18.2,47.4-2.6,143.9-9.1,230.4-77.1,17.7-13.9,57-47.7,86.4-103.3,17.7-33.4,38.4-72.7,28-119.4-2.3-10.3-10.4-46.6-44-68.6-7.5-4.9-37.7-23.1-73.7-13.3-7.2,2-28.6,8.1-43.2,28.6-19.7,27.7-11.6,60.3-9.3,69.5,12.1,48.4,57.3,68.4,61.8,70.3,32.5,13.7,62,6.6,75.4,3.4,36-8.6,58.6-29.2,74.5-44,46.7-43.6,65.7-96.6,73.8-127.7"/>
  </g>
  <g id="Calque_5" class="st9">
    <path class="st6" d="M1077.1,1113c-19.8,66.5-49,114.4-70.2,144.1-27.6,38.6-85,116.5-188.8,152.9-21.3,7.5-70.8,22.5-133.6,17.4-37.7-3.1-81.9-6.7-115.8-40.6-7.4-7.4-33.7-33.8-34.2-74-.1-9,.7-44.2,28.3-69.3,5.5-5,22.3-19.8,47.3-21.1,33.9-1.8,57.1,22.6,63.6,29.5,34.4,36.2,26.9,85.1,26.1,89.9-5.9,34.8-27.7,55.8-37.6,65.4-26.6,25.7-56.1,33.7-77.2,39.2-61.9,16-116.8,3.5-147.3-6.4"/>
  </g>
  <g id="Calque_6">
    <path class="st5" d="M1269.3,1064.4c-19.8,66.5-49,114.4-70.2,144.1-27.6,38.6-85,116.5-188.8,152.9-21.3,7.5-70.8,22.5-133.6,17.4-37.7-3.1-81.9-6.7-115.8-40.6-7.4-7.4-33.7-33.8-34.2-74-.1-9,.7-44.2,28.3-69.3,5.5-5,22.3-19.8,47.3-21.1,33.9-1.8,57.1,22.6,63.6,29.5,34.4,36.2,26.9,85.1,26.1,89.9-5.9,34.8-27.7,55.8-37.6,65.4-26.6,25.7-56.1,33.7-77.2,39.2-61.9,16-116.8,3.5-147.3-6.4"/>
  </g>
  <g id="Calque_8" class="st9">
    <g>
      <path d="M1287.4,1069.8c-7.7,25.1-17.2,49.7-28.7,73.4-4.4,9.2-15.4,13-24.6,8.6-9.1-4.4-12.9-15.2-8.7-24.3h0c10.3-22.1,18.9-45,25.7-68.4,2.9-10,13.4-15.8,23.4-12.9,10,2.9,15.8,13.4,12.9,23.4,0,0,0,.2,0,.2Z"/>
      <path d="M1219,1211.3l-5.7,8-5.7,7.8c-3.8,5.2-7.8,10.4-11.8,15.5-8,10.3-16.5,20.4-25.4,30.1-6.5,7.1-17.5,7.6-24.6,1.1-7-6.4-7.6-17.3-1.3-24.4h0c8.1-9.1,15.8-18.6,23.3-28.3,3.7-4.9,7.4-9.8,11-14.9l5.4-7.6,5.2-7.5.2-.3c5.6-8.1,16.8-10.2,24.9-4.5,8.1,5.6,10.2,16.8,4.5,24.9,0,0-.1.2-.1.2Z"/>
      <path d="M1111.8,1325.9c-21.3,15.8-44.4,29.4-68.7,40.1-8.3,3.7-18,0-21.7-8.4-3.6-8.2,0-17.8,8.2-21.6h0c21.9-10,42.6-22.6,61.8-37.2,7.4-5.7,18-4.2,23.7,3.2,5.7,7.4,4.2,18-3.2,23.7,0,0,0,0-.1,0h0Z"/>
      <path d="M967.2,1389.5c-26.1,4.9-52.8,6.7-79.3,5.4-8.5-.4-15.1-7.7-14.7-16.2.4-8.4,7.5-15,16-14.7h0c24.1.9,48.3-1.1,71.9-5.9,8.6-1.7,17,3.9,18.7,12.5,1.7,8.6-3.9,17-12.5,18.7,0,0-.2,0-.2,0Z"/>
      <path d="M809.1,1383.2c-6.6-2.1-13.2-4.5-19.6-7.5-6.4-3-12.6-6.4-18.6-10.4-5.9-4-11.5-8.5-16.7-13.3l-3.8-3.7c-1.1-1.2-2.4-2.4-3.6-3.7-2.4-2.6-4.7-5.2-6.9-8-5-6.2-4-15.3,2.2-20.3,6.2-5,15.1-4.1,20.2,2h0c1.8,2.2,3.7,4.3,5.6,6.3,1,1,2,2,3.1,3.1l3,2.9c4.1,3.7,8.5,7.1,13.1,10.2,4.6,3,9.5,5.7,14.6,8,5.1,2.3,10.5,4.2,15.9,5.9h0c7.9,2.4,12.4,10.7,10,18.6-2.4,7.9-10.7,12.4-18.6,10,0,0-.1,0-.2,0Z"/>
      <path d="M713,1256.5c.5-7.2,1.6-14.3,3.4-21.2,1.8-7,4.2-13.9,7.4-20.4,3.2-6.6,7.1-12.9,11.7-18.6.6-.7,1.1-1.5,1.7-2.2l1.9-2.1,1.9-2.1c.6-.7,1.3-1.3,2-1.9l2-1.9c.7-.6,1.3-1.3,2-1.8l4.1-3.5c5.6-4.8,14.1-4.2,19,1.5,4.8,5.6,4.2,14.1-1.5,19h0s-.4.4-.4.4c-4.3,3.6-7.9,7.3-11.2,11.5-3.2,4.2-6,8.7-8.3,13.5-2.3,4.8-4,10-5.3,15.3l-.5,2-.4,2c-.3,1.3-.5,2.7-.7,4.1-.4,2.7-.7,5.5-.8,8.2h0c-.4,7.7-7,13.6-14.7,13.2-7.7-.4-13.6-7-13.2-14.7,0,0,0-.2,0-.2Z"/>
      <path d="M835.4,1166.3c6.9,2.7,13.4,6.2,19.3,10.3,6,4.1,11.4,8.7,16.4,13.6,1.2,1.2,2.5,2.5,3.6,3.7l1.8,1.9c.6.7,1.2,1.3,1.8,2,2.3,2.7,4.6,5.6,6.6,8.5,4.1,5.9,7.6,12.2,10.5,18.7,2.8,6.3-.1,13.7-6.4,16.4-6.2,2.7-13.5,0-16.3-6.2h0c-2.3-5.1-5-9.9-8.3-14.3-3.2-4.5-6.8-8.4-11.1-12.6-4.1-3.9-8.4-7.5-12.9-10.5-4.5-3.1-9.3-5.5-14.2-7.4h-.2c-6.7-2.6-10-10.1-7.4-16.8,2.6-6.7,10.1-10,16.8-7.4h.1Z"/>
      <path d="M901,1307.9c-2,6.8-4.7,13.4-7.9,19.6-3.2,6.3-6.9,12.2-11.1,17.8-4.1,5.6-8.7,10.8-13.5,15.6-1.2,1.2-2.4,2.4-3.6,3.5l-3.6,3.4c-2.5,2.3-5.1,4.6-7.8,6.8-4.9,4-12.1,3.3-16.1-1.6-4-4.9-3.3-12,1.5-16h0c2.2-1.9,4.4-3.8,6.5-5.8l3.2-3.2c1.1-1.1,2.1-2.1,3.1-3.2,4.1-4.3,7.8-8.6,11.2-13.3,6.7-9.3,11.8-19.5,14.8-30.2h0c1.8-6.4,8.4-10.1,14.8-8.3,6.4,1.8,10,8.4,8.2,14.8,0,0,0,.1,0,.2Z"/>
      <path d="M780.8,1408.2c-6.4,1.6-12.9,3-19.4,4.1-6.5,1.1-13.1,2-19.7,2.6-13.2,1.2-26.4,1.4-39.6.6-5.8-.3-10.2-5.3-9.9-11.1.3-5.7,5.2-10.1,10.9-9.9h0c12.2.5,24.3.2,36.4-1.1,6-.6,12-1.5,18-2.6,6-1.1,11.8-2.4,17.7-4,5.9-1.6,11.9,1.9,13.4,7.8,1.6,5.9-1.9,11.9-7.8,13.4,0,0-.1,0-.1,0Z"/>
    </g>
  </g>
  <g id="Calque_7">
    <g id="Calque_9">
      <g>
        <path class="st4" d="M1479.5,836.4l-211.6,100.7c-67.6,32.2-148.6,3.5-180.8-64.2l-47.7-100.3,440.1,63.7Z"/>
        <path class="st4" d="M1506,892.1l-100.3,47.7c-67.6,32.2-96.4,113.2-64.2,180.8l21.2,44.5,143.2-273.1h0Z"/>
        <path class="st4" d="M1294.6,735"/>
        <path class="st4" d="M1439.8,752.9"/>
        <line class="st4" x1="1439.8" y1="752.9" x2="1331.7" y2="651.4"/>
        <path class="st4" d="M1373.5,613.7"/>
      </g>
    </g>
  </g>
  <g id="Calque_17">
    <path class="st4" d="M1121.9,754.4l-14.7-63.2,182.5,68.6,89.4,33.6"/>
  </g>
  <g id="Calque_91" data-name="Calque_9" class="st7">
    <path class="st3" d="M545.5,454.5c8.6-37.8-138-124.6-181.8-90.9-21.9,16.8-18.4,63.7,0,90.9,42.8,63.3,174.4,32.7,181.8,0Z"/>
    <path class="st3" d="M545.5,454.5c-27-10.4-89.5,29.5-90.9,90.9-1.5,63.7,63.7,105.6,90.9,95.4,41.5-15.6,41.9-170.1,0-186.3Z"/>
    <path class="st3" d="M547.7,452.9c15.6,41,163.5,42.2,179.6,1.6,10.6-26.6-27.9-90.9-89.8-90.9-61.1,0-99.9,62.6-89.8,89.3Z"/>
    <g id="Calque_10">
      <path class="st3" d="M545.5,452.9c-37.6,8.7-124.2-136.5-90.9-180.2,16.7-21.8,63.6-18.5,90.9,0,62.8,42.6,32.5,172.7,0,180.2Z"/>
      <path class="st3" d="M596.4,636.4c4.1-4,21.4-21.9,22.3-50,.7-20.2-7.5-35-11.1-40.9"/>
      <path class="st3" d="M637.5,517.2c6.7,4.1,23.8,13.3,47.3,12.6,20.6-.6,35.7-8.5,42.4-12.6"/>
    </g>
  </g>
  <g id="Calque_13" class="st9">
    <path class="st3" d="M554.7,450.1l-3.9-5.8,38.3-35.6c27-25.1,69.1-24.2,95,2l43.3,43.8-146.1,8.6c-10.5.6-20.6-4.3-26.5-13Z"/>
    <path class="st3" d="M540.7,433l14.2-81.4c5.4-30.7-12.5-60.8-42.1-70.7l-45.4-15.2,19.4,97.9,53.9,69.3h0Z"/>
  </g>
  <g id="Calque_14" class="st9">
    <path class="st3" d="M541.4,465.3l-5.1-4.8-41.3,32.1c-29.1,22.6-35,64.3-13.3,94.1l36.3,49.8,31.9-142.8c2.3-10.3-1-21-8.6-28.3Z"/>
    <path class="st3" d="M526.8,448.7l-82.6,1c-31.2.4-58-22.1-63-52.9l-7.7-47.2,93.5,34.8,59.8,64.3h0Z"/>
  </g>
  <g id="Calque_11" class="st9">
    <path class="st3" d="M1340.7,876.2c-9.4-9.7,0,0-9.4-9.6l9.4,9.6Z"/>
    <path class="st3" d="M1340.7,876.2c27.7,40.3,22.9,160.9-13.5,174.6-27.2,10.2-92.4-31.7-90.9-95.4.5-21.7,8.6-40.7,20.1-55.7-40.8,5.5-88.4-1.7-111-35.2-18.4-27.3-21.9-74.1,0-90.9,21.7-16.7,68.6-3.8,109.3,18-21.9-40.5-35-87.2-18.4-108.9,16.7-21.8,63.6-18.5,90.9,0,33.7,22.8,40.6,70.8,34.7,111.6,15.2-12.1,34.7-20.7,57.3-20.7,61.9,0,100.4,64.3,89.8,90.9-14.1,35.5-129.6,39-168.3,11.7"/>
    <path class="st3" d="M1378.2,1046.3c4.1-4,21.4-21.9,22.3-50,.7-20.2-7.5-35-11.1-40.9"/>
    <path class="st3" d="M1419.3,927.2c6.7,4.1,23.8,13.3,47.3,12.6,20.6-.6,35.7-8.5,42.4-12.6"/>
  </g>
  <g id="Calque_12" class="st9">
    <path d="M1442.5,784.5c4.6,9.1,4.8,9.5,4.8,9.5s0,0,0,0c0,0,.3.4,4.8,9.4l-9.6-18.8h0Z"/>
    <path class="st2" d="M1442.5,784.5c-22.6-73.5,41.4-252,102.5-255.4,45.7-2.5,123.6,91,91.4,185.8-11,32.3-32.1,56.9-56.4,74.1,63.8,11,131.7,44.1,149.9,105,14.8,49.5-2.1,121.4-42.8,136.3-40.4,14.8-104.6-26.6-155.5-78.5,13.8,71,11.3,147.2-23.6,172-35.3,24.9-104.1-2.2-136.3-42.8-39.8-50.1-27.5-125.3.5-183.7-28.4,11.1-61.8,14.7-95.6,4.1-92.8-29.2-120.2-143.7-91.8-178.6,37.9-46.6,212.6,2.6,257.8,61.8"/>
    <path class="st2" d="M1466.5,511.8c-8,4.1-42.4,22.8-57,64.5-10.5,29.9-5.3,56-2.5,66.6"/>
    <path class="st2" d="M1348.7,671.1c-8.1-9.3-29.5-31.2-65-41.2-31.2-8.8-57.5-4-69.5-1"/>
  </g>
  <g id="Calque_15" class="st9">
    <path class="st1" d="M1419.7,875.6l3.6,13.1-93.3,41.3c-65.8,29.1-142.7.7-173.8-64.2l-51.9-108.4,274.8,77.2c19.8,5.6,35.2,21.1,40.6,40.9Z"/>
    <path class="st1" d="M1444.6,930.1l-78,140.9c-29.5,53.2-15.6,120,32.6,157.1l74,57,26.7-192.8-55.2-162.2h0Z"/>
    <path class="st1" d="M1453.8,856.1l6.3,12.1,96.6-32.8c68.1-23.1,105.5-96.2,84.4-164.9l-35.2-114.9-149.9,242.9c-10.8,17.5-11.6,39.4-2.2,57.6Z"/>
    <path class="st1" d="M1480.3,909.9l152.9,50.8c57.7,19.2,92.7,77.7,82.4,137.7l-15.9,92-150.2-123.8-69.2-156.7h0Z"/>
  </g>
</svg>