<svg width="1440" height="238" viewBox="0 0 1440 238" fill="none" xmlns="http://www.w3.org/2000/svg">
<path d="M899.382 147C899.382 166.4 915.6 182.2 935.743 182.2C955.887 182.2 972.105 166.5 972.105 147C972.105 127.5 955.887 111.8 935.743 111.8C915.6 111.8 899.382 127.5 899.382 147Z" fill="#030027" stroke="#030027" stroke-width="10" stroke-miterlimit="10"/>
<path d="M852.587 182.2C832.505 182.2 816.225 166.44 816.225 147C816.225 127.56 832.505 111.8 852.587 111.8C872.669 111.8 888.948 127.56 888.948 147C888.948 166.44 872.669 182.2 852.587 182.2Z" fill="#030027" stroke="#030027" stroke-width="10" stroke-miterlimit="10"/>
<path d="M769.534 182.2C749.452 182.2 733.172 166.44 733.172 147C733.172 127.56 749.452 111.8 769.534 111.8C789.616 111.8 805.895 127.56 805.895 147C805.895 166.44 789.616 182.2 769.534 182.2Z" fill="#030027" stroke="#030027" stroke-width="10" stroke-miterlimit="10"/>
<path d="M567.582 182.2C547.5 182.2 531.22 166.44 531.22 147C531.22 127.56 547.5 111.8 567.582 111.8C587.664 111.8 603.944 127.56 603.944 147C603.944 166.44 587.664 182.2 567.582 182.2Z" fill="#030027" stroke="#030027" stroke-width="10" stroke-miterlimit="10"/>
<path d="M484.426 182.2C464.344 182.2 448.064 166.44 448.064 147C448.064 127.56 464.344 111.8 484.426 111.8C504.508 111.8 520.787 127.56 520.787 147C520.787 166.44 504.508 182.2 484.426 182.2Z" fill="#030027" stroke="#030027" stroke-width="10" stroke-miterlimit="10"/>
<path d="M401.372 182.2C381.291 182.2 365.011 166.44 365.011 147C365.011 127.56 381.291 111.8 401.372 111.8C421.454 111.8 437.734 127.56 437.734 147C437.734 166.44 421.454 182.2 401.372 182.2Z" fill="#030027" stroke="#030027" stroke-width="10" stroke-miterlimit="10"/>
<path d="M129.177 182.2C109.095 182.2 92.8153 166.44 92.8153 147C92.8153 127.56 109.095 111.8 129.177 111.8C149.259 111.8 165.539 127.56 165.539 147C165.539 166.44 149.259 182.2 129.177 182.2Z" fill="#030027" stroke="#030027" stroke-width="10" stroke-miterlimit="10"/>
<path d="M46.1237 182.2C26.0418 182.2 9.76206 166.44 9.76206 147C9.76206 127.56 26.0418 111.8 46.1237 111.8C66.2057 111.8 82.4853 127.56 82.4853 147C82.4853 166.44 66.2057 182.2 46.1237 182.2Z" fill="#030027" stroke="#030027" stroke-width="10" stroke-miterlimit="10"/>
<path d="M-35.8965 111.9V182.2C-34.9668 182.2 -34.1404 182.2 -33.314 182C-21.0213 180.8 -10.5879 173.7 -5.11302 163.7C-2.32392 158.8 -0.774475 153.1 -0.774475 147.1C-0.774475 141.1 -2.22068 135.7 -4.90648 130.8C-6.24937 128.3 -7.90223 125.9 -9.86493 123.8C-15.753 117.4 -24.017 113 -33.314 112.1C-34.1404 112.1 -35.0701 112 -35.8965 111.9Z" fill="#030027" stroke="#030027" stroke-width="10" stroke-miterlimit="10"/>
<path d="M-32.9006 185.7H2030.41V237.4H-32.9006V185.7Z" fill="#030027" stroke="#030027" stroke-miterlimit="10"/>
<path d="M282.268 35V133.6C282.268 150.2 296.11 163.6 313.258 163.6H1006.4C1023.55 163.6 1037.39 150.2 1037.39 133.6C1037.39 117 1037.39 131.6 1037.39 130.7C1037.39 128.4 1037.18 126 1036.98 123.7C1035.94 109.8 1032.54 96.6 1027.27 84.3C1020.55 68.6 1010.74 54.5 998.447 42.7C992.249 36.7 985.431 31.3 977.993 26.5C975.927 25.1 973.758 23.8 971.485 22.6C951.755 11.4 928.926 5 904.444 5H313.154C296.007 5 282.164 18.4 282.164 35H282.268Z" fill="#030027" stroke="#030027" stroke-width="10" stroke-linecap="round" stroke-linejoin="round"/>
<path d="M873.115 23L903.243 88H1046C1038.47 70.3443 1027.46 54.4879 1013.67 41.218C1006.72 34.4706 999.07 28.3979 990.728 23H873H873.115Z" fill="white" stroke="white" stroke-width="10" stroke-linecap="round" stroke-linejoin="round"/>
<path d="M-33.3139 35.3C-34.1403 35.8 -35.07 36.2 -35.8964 36.6V163.7H210.268C227.415 163.7 241.258 150.3 241.258 133.7V35.1C241.258 18.5 227.415 5.09998 210.268 5.09998H-33.2106V35.3H-33.3139Z" fill="#030027" stroke="#030027" stroke-width="10" stroke-linecap="round" stroke-linejoin="round"/>
<path d="M646.813 40.5H781.31V69.4H646.813V40.5Z" fill="white" stroke="white" stroke-width="10" stroke-linecap="round" stroke-linejoin="round"/>
<path d="M490.004 40.5H624.5V69.4H490.004V40.5Z" fill="white" stroke="white" stroke-width="10" stroke-linecap="round" stroke-linejoin="round"/>
<path d="M333.091 40.5H467.588V69.4H333.091V40.5Z" fill="white" stroke="white" stroke-width="10" stroke-linecap="round" stroke-linejoin="round"/>
<path d="M1037.08 123.7H282.371V130.7H1037.49C1037.49 128.4 1037.29 126 1037.08 123.7Z" fill="white" stroke="white" stroke-width="10" stroke-miterlimit="10"/>
<path d="M-35.9999 123.7H241.154V130.7H-35.9999V123.7Z" fill="white" stroke="white" stroke-width="10" stroke-miterlimit="10"/>
<path d="M53.6644 40.5H188.161V69.4H53.6644V40.5Z" fill="white" stroke="white" stroke-width="10" stroke-linecap="round" stroke-linejoin="round"/>
<path d="M-35.8967 50.6V69.4H31.3516V40.5H-33.3141V49.2C-34.1405 49.7 -35.0703 50.1 -35.8967 50.5V50.6Z" fill="white" stroke="white" stroke-width="10" stroke-linecap="round" stroke-linejoin="round"/>
</svg>
